/* XPM */
static char *Tom_and_Jerry___001___Puss_Gets_the_Boot__1939__000525_removebg_preview__1_1681135973[] = {
/* columns rows colors chars-per-pixel */
"64 64 234 2 ",
"   c #020201",
".  c #0A0302",
"X  c #050805",
"o  c #0B0806",
"O  c #040409",
"+  c #0A060A",
"@  c #0D0A0A",
"#  c #06090A",
"$  c #130100",
"%  c #1B0200",
"&  c #120D0C",
"*  c #170C09",
"=  c #14100F",
"-  c #1A1109",
";  c #0C0C11",
":  c #060610",
">  c #130E13",
",  c #0E1117",
"<  c #0E1218",
"1  c #151213",
"2  c #1B1514",
"3  c #13141B",
"4  c #16181E",
"5  c #1C191B",
"6  c #1B161B",
"7  c #2B0301",
"8  c #250901",
"9  c #380801",
"0  c #22140C",
"q  c #291609",
"w  c #391406",
"e  c #221C1B",
"r  c #241B13",
"t  c #3A220E",
"y  c #29221D",
"u  c #38261A",
"i  c #1C1C23",
"p  c #191E26",
"a  c #221F22",
"s  c #1E222A",
"d  c #252226",
"f  c #2B2524",
"g  c #28272C",
"h  c #372A26",
"j  c #2C2D34",
"k  c #252931",
"l  c #332E33",
"z  c #2E3136",
"x  c #2E343A",
"c  c #2F383D",
"v  c #353135",
"b  c #32353C",
"n  c #33383F",
"m  c #3A353A",
"M  c #3C362D",
"N  c #440E00",
"B  c #4B0B00",
"V  c #431300",
"C  c #461908",
"Z  c #521B01",
"A  c #591700",
"S  c #4C1D15",
"D  c #631F00",
"F  c #4A2007",
"G  c #592508",
"H  c #492717",
"J  c #572B17",
"K  c #47301C",
"L  c #5B3319",
"P  c #6D2B0A",
"I  c #642609",
"U  c #702E0E",
"Y  c #72320C",
"T  c #672C15",
"R  c #6C341B",
"E  c #693417",
"W  c #733313",
"Q  c #7C3A16",
"!  c #733D1C",
"~  c #7C3D1C",
"^  c #743519",
"/  c #4A2C20",
"(  c #453326",
")  c #5A3827",
"_  c #483836",
"`  c #513831",
"'  c #683A25",
"]  c #773C22",
"[  c #7D421F",
"{  c #7A431C",
"}  c #584437",
"|  c #524134",
" . c #69442D",
".. c #7C4424",
"X. c #7D442C",
"o. c #774728",
"O. c #684839",
"+. c #7B4C34",
"@. c #764833",
"#. c #7D563C",
"$. c #7B502D",
"%. c #323C42",
"&. c #3A3C44",
"*. c #3A3C48",
"=. c #2E3740",
"-. c #3B424B",
";. c #3E4854",
":. c #424349",
">. c #594B44",
",. c #454B55",
"<. c #4A4D5B",
"1. c #444854",
"2. c #4C525D",
"3. c #475059",
"4. c #56545A",
"5. c #5F5148",
"6. c #6A5549",
"7. c #7A584A",
"8. c #695D54",
"9. c #775E5A",
"0. c #796557",
"q. c #4C5462",
"w. c #535562",
"e. c #565C69",
"r. c #7B6D64",
"t. c #6E6264",
"y. c #843D1C",
"u. c #863D18",
"i. c #84441C",
"p. c #8B451C",
"a. c #894619",
"s. c #8C4519",
"d. c #834423",
"f. c #8B4422",
"g. c #834A24",
"h. c #8A4A24",
"j. c #82462B",
"k. c #894A2C",
"l. c #914C26",
"z. c #8B512E",
"x. c #884D34",
"c. c #914F32",
"v. c #885336",
"b. c #925134",
"n. c #96573B",
"m. c #91512E",
"M. c #BA623E",
"N. c #885A45",
"B. c #A05C45",
"V. c #966549",
"C. c #986B56",
"Z. c #9A7655",
"A. c #866255",
"S. c #A76549",
"D. c #B76A4A",
"F. c #AD6D50",
"G. c #A56C56",
"H. c #B56D52",
"J. c #A7745B",
"K. c #B97354",
"L. c #82736B",
"P. c #8C7467",
"I. c #9A7567",
"U. c #877871",
"Y. c #937F76",
"T. c #A57764",
"R. c #AB7B72",
"E. c #C56B49",
"W. c #C7714E",
"Q. c #C47353",
"!. c #94826E",
"~. c #8F8178",
"^. c #98877B",
"/. c #A9856A",
"(. c #A98773",
"). c #B48A74",
"_. c #B78E7A",
"`. c #B78D72",
"'. c #C69579",
"]. c #988984",
"[. c #9E9288",
"{. c #A99588",
"}. c #B59887",
"|. c #B1978E",
" X c #AEA097",
".X c #B8A595",
"XX c #C5988C",
"oX c #CAA689",
"OX c #C8AA96",
"+X c #CAB19B",
"@X c #D9B59A",
"#X c #D3B18B",
"$X c #CCBCAB",
"%X c #C7B6A6",
"&X c #D8B8A5",
"*X c #CBB4B0",
"=X c #E3BBA3",
"-X c #DECBAD",
";X c #DFC7AD",
":X c #D6C4B4",
">X c #DDC6B2",
",X c #DECBB3",
"<X c #DECDB9",
"1X c #DFD0B3",
"2X c #E3C6AD",
"3X c #E5CCAD",
"4X c #E9CBAE",
"5X c #E6C6A8",
"6X c #E5D1AF",
"7X c #EDD1AD",
"8X c #E5CDB3",
"9X c #E9CEB3",
"0X c #E4CFBA",
"qX c #EACEBA",
"wX c #E6C4B2",
"eX c #F2CCB8",
"rX c #E6D2B5",
"tX c #EAD1B5",
"yX c #E8D8B6",
"uX c #E5D2BA",
"iX c #EBD4BA",
"pX c #EDD9BC",
"aX c #F3D5BB",
"sX c #F2D9BD",
"dX c #F5D4B9",
"fX c #DCCDC6",
"gX c #E6D3C2",
"hX c #ECD5C1",
"jX c #EDD9C2",
"kX c #EBDBCA",
"lX c #F2DAC2",
"zX c #F6D7C5",
"xX c #FACEC1",
"cX c #F4E1CA",
/* pixels */
"9X9X9X9X9XtX9XtXtXtX9XtXtXtXtXiXiXiX9X9XqXtXqXqX9XiX0XiXiXqXqXqXqX8X7X6XrXuXrXrXqXqX9XtX7XeXqXhXeXiXtXtX9XtXtX9XiX9X9X0X9X9X9XtX",
"tXtX9XtX9X9X9X9X9X0X8X9X9X9X9X9XrXrXtX0X9X9X9X9XiXqXrXiX8X3XiXwXxXaXdX4XrXuXpXrX0X9X9X9X4X7XqXqXqX9X9X9X9X0X9X3X9X9X9X9X9XtX9XtX",
"iXtXiXiXtXuXiX9X9X0XtXtX9XiXiXtXiXuXtXyXiX9X9X9X9X6XtXtX3XtX9XaXqX&X@X7XiX8XrX3XiXiX9XtXtXtXtXqXiXqXtXiX9XrX0XtXtXiX0XtXiXtXiXiX",
"tX0X9X0XqXiX9XiXtXiXtXiXiXiXiXiXiXiXiXaXaXiXiXiXpXtXtXsXsXdX5X&X).@.J Z.eXlX9XsXjXaXtXyXpXyXiXjXiXiXiXiXiXtXiXiXiX9X9XiXtXtX9X0X",
"tXtXiXiXiXiXiXiXaXiXiXaXiXiXiXaXpXpXtXpXiXpXiXiXtXsXlXOX/.!.C.J C ] $.V R.dXdXtXjXjXiXiXyXpXuXjXiXiXaXiXiXiXiXaXiXiXiXiXiXiXiXiX",
"iXiXaXpXiXsXpXpXjXiXlXiXiXlXiXlXiXpXsXtXiXiXpXpXiXpXqX(.8 J C J ' G I Z V =XdXaXiXhXiXyXyXyXuXjXiXlXpXiXiXsXpXiXlXaXlXiXiXiXaXiX",
"iXiXrXuXiXtXuXrXiXrXyXyXuXiXiXiXiXyXyXiXiXpXiXpXpXiXlXgXI.7 C 9 R j.x.G N V.9XlXgXiXpXpXyXyXyXuXiXiXuXuXiXiXuXiXiXiXyXtXrXtXiXuX",
"iXuXiXrXiXuXiXiXiXiXuXiXiXuXpXiXrXtXiXyXiXiXuXiXuXuXhX>X7.% I.XXj.N.x.] T N oXzXiXuXyXuXyXyXiXiXiXiXiXpXiXuXiXyXpXuXuXtXuXuXrXiX",
"uXiXrXiXiXrXrXiXrXrXrXrXuXrXrXiXrX8XtXiXtXrXiXuXiXuXlX.X7 }.xXdXT.A j.x.z.T /.zXiXiXiXiXrXrXrXrXiXrXrXiXrXrXrXrXiXrXtXuXtXuXtXuX",
"rX8XrXrXrXrXuXrXiXuXiXyXiXiXiXiXpXiXpXiXtXiXlXpXuXlXsX;X&XaXxXdX=XR.T T b.A /.lXlXiXuXiXaXiXiXsXpXpXuXiXiXiXiXtXuXrXyXrXrXrX0XrX",
"yXiXaXpXiXsXsXsXiXiXsXaXtXsXiXpXpXiXiXiXsXiXtX3XsXrXyXpXsXsXdXtXdXzXOX9 W N ).iXtXaXiXiXaXtXtXiXtXiXsXsXpXiXpXiXiXsXiXsXaXpXtXtX",
"iXiXiXsXiXsXiXiXtXiXtXpXpXiXiXtXrXiXiXqXtXiXtXpXrX6X6XyX3XrX3XrXwXeX&X' g.U ).pX0XtXtX9XtXtXaXiXsXpXtXtXiXsXiXiXsXiXsXtXpXsXtXsX",
"tXiXtXtXtXtXtXtXtXrXtXrXtXyXtXtX3XyX9X3X8X9X9X8XrXrX-X-XrXrX,XrX9XzX+X' b.Y /.pX9X3X7XrXtX9X9X3X9X9X9XrXtXrXrXtXtXtXtXyXyXtXiXtX",
"aXtXiXtXyXrXtXtX9X3X9XrX9X3X9X9X6X3X3X8X9X9X8X8X9XpXuXuXuX<XuX<XgXgX:X@.d.Q /.-X3X3X3XtX8X3X3X9X9X9XtXrX8X3X3X9XtXtXtXtXtXtXtXaX",
"rX9XtX7X9X3X9X3X3X3X3X3X3X3X3X3X6X3X3X9X2XwX8XqXwX%X{.].L.L.U.~.^.|.{.+.d.U ).rX6X3X3X3X;X0XtXtX7X6X3X;X;X3X3X3X3X3X3XrX3XtXtX3X",
"3X3X3X9X9X3X-X8X3X3X3X3X9X3X3X3X9X3X3X2X9XjX&X[.} . . . . . . . . . $ ' c.U C.uXrX3X8X8X8X9X5X_.Z.oX5XtX9X3X9X3X3X9X3X9XtXrX3X9X",
"9X9XrXqXuX0X0X0XrX9X9XiX9XiXiXrXtXsX,XcXgX|.u   . * 2 e 2 2 2 r r - q O.x.X.w P.+XcXgXlXzX&Xx.N E V oXiXaXiX9XrXrXrXrXrXrXuX0X0X",
"tXtXiXuXiXuXiXiXiXtXtX9XsXtX8XhXuXuXcX:Xr.. . f ; # .   . . .   X o q O.o.j.H $ o 0.$XlX&X' R k.l.! Z.tXtXiXtXtXyXyXuXpXiXgXiXiX",
"aXiXaXiXjXiXiXjXiXlXaXiXsXtXlXiXuXkX$X( . f o   O                 . t  .o.X.J 8 q . - !.N.R d.f.l.Y V.7XzXsXtXdXyXyXpXdXlXiXiXaX",
"tXtXtXiXiXuXuXrX9XtX9XiX9XrXrX8XgX%X- . y   o     O # O           . t  .d.j.) . . q . $ G d.p.u.p.Q $.7X4X4XtX9X6X6XtXtXiXtXtXtX",
"9X9X0X9X8X8X0X8XtX3X3X3X-X8X&XuX%Xo . 2 . .         O           ;   K  .] k.' $ q t K E E P P u.h.i.v.@X7XtX2X4X3X4X8X8X8X8X9X3X",
"9XtXyXtXiXuXuXrXaXtX7XrXtXrXjX$Xh . e . . X O           O   O   O   u $.d.T w H  .#.@.@...i.Q I Y I J.dX9XaXqX9XtXtX9X9XuXiXyXrX",
"tX9XrXtXrXrX9XtX3XtXtXiXuXuX,X8.. 6 . + +                       # o u O.L H L L o...X.X.Z T m.d.Q 9 XXeXqXqXqXqXtX9XqXiXuXuXuXrX",
"9XtXtXrXrXrX9X9XtX3XtXtX<XjXY.. 2 > 3 + #     X   X             O X u | w ) ' o.h.Q I I E ! [ d.m.N `.dXeXzXeXqX9XeXeXiXuX1XuXuX",
"tX9X8XrX9XrX6XtXtXtXiX8XkX.X. . > @ i +                         . .   _ ~.) o.g.y.^ ] R R ] d.f.d.j.S OX=XoXT.A.+.#.).eX0X<XiX0X",
"9X9X8X3X9X3X3X3X3X3X>XuX:X| . - > 3 > O                         . >   8.%XO...k.T T ] T ' x.y.p.f.y.A ' ] 9 9 V T G 7 ).9XiX8X8X",
"0XrX9XrXtXtX4X9X9XiXuXgX^.. - 2 > i + O                         . . . ^.{.H x.! S 7.] T g.a.a.u.y.y.j.] ' j.n.S.S.F.b.+.=XtX9X9X",
"iXiXtXiXiXsXtXtXiXtXkX$Xh . 5 1 a i   O     .                   = h . r.O. .+.9 S *X_.B h.a.s.p.y.y.y.] B.H.D.K.D.K.H.n.@XdX4XeX",
"tXtXiXqX9XtXyXtXiX8XhX~.. e 4 4 a ;   O                         M _ >.7 ' v.' % {.*XA.^ l.s.s.u.u.y.D d.H.H.Q.W.E.E.K.n.oXdXdX7X",
"tXtX9X9X9X0X4X9XqX0X$XM . d 4 s i O   O                       X f >.P.I.' ' J / ].A.A f.s.s.s.p.u.y.y.P A y.S.E.W.E.D.S.#XdX4XtX",
"iXiXiXiXtXtXtXtXiXhX^.$ e d p s ,                           O X . . K _.I.L w / 7 9 g.a.{ a.f.u.f.j.] D f.K.Q.D.M.W.S.K.5XiXaXiX",
"iXqXiX9X9XtXtXrXhX:X6.  l 4 p s #   O   O   O             O O X 5.8.O.).T.J S ) ) ..Y { h.i.p.p.f.d.I b.H.D.D.E.W.W.n.'.dXiX0XiX",
"rX8X6X6X6X-XrX-XkX X- e j i k k                               X h ^.}._.C.R C T o.$.{ a.a.i.s.s.h.P m.F.H.E.E.E.W.D.S.@XyX8X9X4X",
"rXrXrXrX6X-X6X1XfX].. m l k j p                               . X - 0.R.}.C.C ] { ..a.a.h.a.s.a.i.U S.S.D.D.M.W.W.l.'.9XrXrX9X3X",
"rXrXtX6XrX6X6XyXfXt.. &.j j =.p                                   . % O.O.S C ] v.{ a.a.f.p.i.h.W X.S.F.H.K.Q.Q.c.'.eX9XuXuXrXtX",
"pXuXpX7XpXpXyXcX*Xl 5 m k z k <                                   o 0 u * 7 C ' { a.h.s.f.f.f.g.] ] J.K.G.F.F.k.XX=XdXdXuXuXjXaX",
"tX9XtX9XtXtX6XjX X: v v z x k :                     X             X . _ h 9 7.C.G a.a.s.p.i.z.{ ' J C.T.J.C.N.@XeXdX9XiXrXyXrXrX",
"rX0X9X3X3X9X3X<X].O m l z x k   O                                 X . >.U.9.Y.' $.{ { a.p.h.i.{ T V C O.} % 7.2XwX8X9X3XrXrX3XrX",
"9XiXtXtX9X9XqX0XL.+ *.j j x s O                                 X     o r.L.` } N.o.$.{ ..[ Y ..k.J $ . . . 6.8XdX4X4XaXtX3XsX7X",
"9X9X3X9X8X8XrX$Xt.. :.j x x 3   O O                                 . . O . + / (  .E E T Z ^ ....E % - =   M :XeX5X4X4X3X7X3X3X",
"8X8X2X4XwX2XuX$X4.6 =.b =.b 3 O                                       . + @ . . . . $ $ H O.x.$...j.C . 2 . y %XqX5X5X2X4X2X2X5X",
"9X9X3X9X9X8XuX%X>.a *.l b b 3   O                                 O     . O + . . . . $ 8 ' @.X.i.X.@.w . $ . +XiX9X9X9X9X9X9XtX",
"3XtXtX9XiXiXpX%X_ z &.x x n 3 O                                               O O O   + . q  .$.j.d.o.J  .' t OXlX8XiXqX0XiXiXrX",
"3XrXtX9X8XuXuX.Xg b b b b =.+       O                               X         O   O   O o . / @...d.^ ^ v.o.q oXlX>XgX0X0X0X0XrX",
"3XrX8X8XwXqX0X Xa =.b =.%.x O O       O                               X X         O     o . q ' o.g.P P k.T 9 _.pX1XrX<XuX0X<XrX",
"-X>X8X2X8X0X<X{.5 *.*.=.x x O O     X                                 X   X         X     o . | o.v.k.^ ~ G G Z.3XrX,X<X0X8X-X8X",
"-X-X8X8X8XuX<X[.j *.%.%.%.b O                                                       X X   +   h N.V.V.x.T E G G #X7X-X8X,X9X;X5X",
"rXrXiXiXuXjXuX[.:.-.%.%.-.n O O                                       X X       .       X   & . 7.C.V.G.x.I W F oXdXrXrXrXyXtXtX",
"yXpXpXpXpXjXuX[.&.-.-.-.-.&.          X     X     o   X                                   X o . ` Y.C.G.S.U G 9 oXzXiXhXjXpXpXpX",
"pXtXiXjXuXpXgX[.&.;.-.-.1.&.      X   .       o                         X                 X X o . 0.T.J.H.y.A G &XzXuXgXuXuXyXpX",
"9X0X0X0X8XrXuX].b ;.-.-.,.*.O         X     o                                                   . ( I.J.K.S.G G.9XiX8X8XrX8X8XrX",
"tX9XiX9XrXiXuX].s ;.-.1.<.*.                X                                                   & $ ` T.T.F.N.`.dXqX0X8XrX8XrXrX",
"tXtXiXiX0XiXuX].< ;.1.,.<.*.O   O           X                                                   . . $ 7.T.I.7.(.aX8XtX8XyXtXiXrX",
"tXtXqX9X0XiX8X~.< 3.,.3.<.*.O   .                                                 X       X .     . $ % 7.I.N.(.dX4XtX9XtX9XuX8X",
"4XtXtX0X9XiX,X~.< q.3.q.<.*.;               .                   .                         .   .   o . . $ 6.7.}.lX9X7X7X9X9XiX0X",
"3X4X8X3X3XrX>XU.< q.q.q.<.*.<   X       .           .                         .       . .   .   .   . . - $ $ {.aX2X5X5X4X5X8X8X",
"3X3X3X9X3XrX,XL.p 3.q.2.<.:.3   X .     X .           .       .               . .   .     . .       o + 2 - $ |.qX5X5X7X5X3X3XrX",
"3X3X8X9X;XrX>XL.p q.q.2.2.<.p     .     . X     .                       .   .         .   . .   X #   + 5 & q |.iX4X5X5X3X3X3X9X",
"9X9X9X0X3XrX>XL.p q.q.<.<.,.3   X X       .       o                   X .   .   . . .   . . . X o X ; 6 j - $ .XaX3X3X4X4X9X8X9X",
"tXtXtXtXrXrX<Xr.b e.w.w.w.<.p O 1 = o X                   .   X .   .     . .     .   . X o o @ o + a g m a . +XiX9X9XtX9XiX9XiX",
"4XtXtXtX8XrX>Xr.%.e.q.w.w.w.i + 4 2 & .   o o .   . .   . .   .           . .   o . o o o @ @ & = 1 5 g l a H %XrX3X1XrX8X0X4X9X",
"4XtX9XtX8XiX,Xr.j w.<.4.w.w.a ; y 5 = = = = & o o @ o o o o . o o o o   . o o o o @ & 1 2 = = > 2 e i d v - >.0XpXrXrX1XrXrX4X9X",
"iXaXiXlXiXjX0XL.l e.w.w.e.e.l 6 d 2 1 2 2 1 = & @ @ @ @ o o o o o @ o o o @ @ @ = = 2 e e e e e e f g f M . 6.jXsXpXpXjXpXsXaXdX",
"tXtXqXiXrXhX>Xr.j e.<.1.<.w.g @ 1 & . o o o . . . o . . .   . .   o o X o @ & @ 1 5 y d f f f f f h g l l . P.iXrXrX1XuXrXtXtXtX"
};
