/* XPM */
static char *_7601962c8104095b31618dfecd07f562p6Rvd8XEhNx4P79[] = {
/* columns rows colors chars-per-pixel */
"64 64 209 2 ",
"   c #070603",
".  c #1A150A",
"X  c #5A3E00",
"o  c #543D11",
"O  c #6F3D02",
"+  c #4F401F",
"@  c #664805",
"#  c #765408",
"$  c #604711",
"%  c #6E5012",
"&  c #725517",
"*  c #58492A",
"=  c #765A2B",
"-  c #6E5827",
";  c #7B6237",
":  c #565656",
">  c #494949",
",  c #796643",
"<  c #6D6456",
"1  c #7B5F6D",
"2  c #7D6B67",
"3  c #960A05",
"4  c #92130A",
"5  c #A50100",
"6  c #AC1F01",
"7  c #8A2200",
"8  c #9C2F01",
"9  c #9C3400",
"0  c #A62400",
"q  c #C70300",
"w  c #D90200",
"e  c #DD1201",
"r  c #C1160C",
"t  c #E40602",
"y  c #EC0000",
"u  c #F40201",
"i  c #FD0000",
"p  c #E21500",
"a  c #C63500",
"s  c #835A02",
"d  c #895D00",
"f  c #835D0D",
"g  c #875000",
"h  c #8D5C19",
"j  c #BE4300",
"k  c #B85700",
"l  c #A64800",
"z  c #956704",
"x  c #9B6A01",
"c  c #976A0A",
"v  c #83631D",
"b  c #966D18",
"n  c #9D7117",
"m  c #896008",
"M  c #A26F01",
"N  c #A96A00",
"B  c #A47001",
"V  c #AB7401",
"C  c #AE7B0A",
"Z  c #A7750D",
"A  c #B47C02",
"S  c #B97E01",
"D  c #B37D0C",
"F  c #B27301",
"G  c #A67718",
"H  c #B37F12",
"J  c #AB4D28",
"K  c #896626",
"L  c #927028",
"P  c #997428",
"I  c #856A36",
"U  c #896935",
"Y  c #987636",
"T  c #926D39",
"R  c #AB7F29",
"E  c #A77E25",
"W  c #B37E2A",
"Q  c #CA5300",
"!  c #C17B00",
"~  c #D04524",
"^  c #CD6333",
"/  c #997B42",
"(  c #977947",
")  c #8A7656",
"_  c #957D58",
"`  c #93714E",
"'  c #B57E40",
"]  c #8E7C67",
"[  c #85667B",
"{  c #867A71",
"}  c #90797F",
"|  c #927E63",
" . c #BD8202",
".. c #B88009",
"X. c #B98415",
"o. c #A98127",
"O. c #B48626",
"+. c #AC863A",
"@. c #B08736",
"#. c #BD8F31",
"$. c #C38601",
"%. c #C68802",
"&. c #CE8D00",
"*. c #C18709",
"=. c #C68B0D",
"-. c #CC8300",
";. c #D08E01",
":. c #CE9001",
">. c #C98C16",
",. c #C88D26",
"<. c #C2963E",
"1. c #CD9828",
"2. c #AA8847",
"3. c #BA9344",
"4. c #A88C5A",
"5. c #BC875C",
"6. c #B0925E",
"7. c #9E8A6A",
"8. c #99876F",
"9. c #9C8A74",
"0. c #A68D64",
"q. c #AE976C",
"w. c #A89576",
"e. c #B39B75",
"r. c #AA9471",
"t. c #BCA478",
"y. c #C49F53",
"u. c #C19840",
"i. c #CEA855",
"p. c #C9A351",
"a. c #D2AB58",
"s. c #DDB259",
"d. c #D4A647",
"f. c #E5B95B",
"g. c #E5B44E",
"h. c #C8A468",
"j. c #C5A878",
"k. c #EABF61",
"l. c #C79072",
"z. c #ECC163",
"x. c #F3C665",
"c. c #F7C967",
"v. c #FFCF6B",
"b. c #FED06C",
"n. c #96738C",
"m. c #9C7998",
"M. c #AC7F86",
"N. c #A99586",
"B. c #B98996",
"V. c #AD8C90",
"C. c #BCA98E",
"Z. c #B9A488",
"A. c #BBA695",
"S. c #B58CAF",
"D. c #B1AFAA",
"F. c #91918F",
"G. c #C08E9A",
"H. c #C89296",
"J. c #C4AD8C",
"K. c #C4AE95",
"L. c #C0AB98",
"P. c #C6B29B",
"I. c #CDB69E",
"U. c #CAB596",
"Y. c #D2BB9C",
"T. c #CDB189",
"R. c #D29CA6",
"E. c #C59CBA",
"W. c #CCBBA5",
"Q. c #D4BDA3",
"!. c #D9BFA6",
"~. c #CEA4AE",
"^. c #E0A4AE",
"/. c #DBC297",
"(. c #E3C69A",
"). c #DBC3A5",
"_. c #DDC5AB",
"`. c #DEC9AD",
"'. c #D6C1A7",
"]. c #DECAB1",
"[. c #E1C7AB",
"{. c #E5CCAE",
"}. c #E6C9A8",
"|. c #E4D0AF",
" X c #E6CDB2",
".X c #E9CEB3",
"XX c #E6D1B5",
"oX c #EAD1B5",
"OX c #E6D3B8",
"+X c #EBD5BA",
"@X c #EDD8BD",
"#X c #F1D7BC",
"$X c #F0D9BD",
"%X c #C393C2",
"&X c #CC9BCA",
"*X c #DAA5D6",
"=X c #E3AADF",
"-X c #E4ADE4",
";X c #EEB4ED",
":X c #F6BAF6",
">X c #FCBEFC",
",X c #F2B6F2",
"<X c #D0D0D0",
"1X c #D2CFC9",
"2X c #F1DCC1",
"3X c #FEC0FF",
"4X c #EAEAEA",
"5X c #F3F4F3",
"6X c #F2F1ED",
/* pixels */
"+X+X+X+X+X+X2X+X2XOX+XoX2X+X2X+X+X+X@X+X+X+X+X+X+XoX#X+X2X2X.X.X+X+X#X+X2X2X+X#X#X+X+X+X2X+X#X#X+X@X+X+XoX+X+X@X+X+X@XoX+X+X+XOX",
"oX+X+X+XoXoXOX+X+XOX+XoXoXoXoXoXoXXXoXoXoXoX.XoXoXoXoX+X.X.X+X.X.X.XoXoX.XoX.X.X.X.X.X.X+X.XoX.XoXoXOX+X+XoX+X+X+X+X+XoX+XoX+X+X",
"oX.X X X.X.X.X.X X X X.X X X X X.X{.{. X X{.{.{..X{.{..X.X{..X{. X{..X{..X.X.X{.{.{..X{.{..X{.{. X X X X.X.X.X.X.X.X.X.X.X.XXX{.",
".XoXoXoXoX.X.X.XOX.XOX.X.X.X.X.X.X.X.X XoXoX.X.X.X.X.XoXoXoX.XoX.X.X.X.X.X.X.X.X.X.X.X.X.X.X.X.XoX.XoX.X.X.X.X.X+X.X.X.XoXoXoXoX",
"oXoXoXXXXXoXOXOX.XoX+X+X+X+X+X+XOXoX+X+XoXoXoX XoXoXoXoX.X.X.XoX.X.X.X.X.X.XoXoX.X.X.XoXoXoXOXOXoX+X+X+X+XoX+X.X.X.X.XoXoXoX+XoX",
"oXXXXX|. XXXOXoX2XoXoXoXOXoXOX+XOX.X+X XOXoX+XoXoX.X.X+X+X+XoX+X+X+X+X.X#XoX+X+X+XoX2XoXoXOX.XoX+X+XoXoX.XOXoX.X+XoXoX.X X X.XoX",
"oX+XoXoX.X.X.X.X!.2X.XoXoXoX+XoX X.X.X X X X X X.X{.{..X.X.X{.{. X X.X X.X.X.X.X{..X{..X.X.X.X{.oXXX X.X.X.X.X.X.X.X.X.XoX+XoXoX",
"oXXXoXoXoXoXoXoX2X.XoXoX+XOX+XoX+X#X+X+X+X+X+X+X#X#X#X.XoXOX#XoX+X.X.X.X#XoX#XoX+X+X+X#XoX+X#XoX+X+X+X+X+XOX+XoXoXoXoX.XoXoXoXoX",
"OXOXXXOX+X+X+X@X.X2X2X2X2XoX@X@XOX+X2XOX2XOX+X2X+XoX+X+X+XOX+X+X2XoXoX+X.XoX2X X2X X2X2X2X2X X+X@X@X@X2X@XOXoX+X+X+X+XoX+XXXXX+X",
"2X2X+X+X2X@X@X+X X2X2X2X*XoX@X+X2XOX+X2X2X2X2X+X+X2X+XOX+X+X2X2X2X+X+X+XOX2X2X2X2X2X#X1X2X X1X.X2X@XOXOX+X@X@X@X@X@X@X@X@X@X@X@X",
"OXOXOXoX+XoX+XoX2X X2X!.oXOXXXOXoXOX+X+XOX+X+X2X2X2X+X+XOX2X2X2X+X2X2XoX X2X2X2X2X+X.X+X2X2X X2X].OXOXXXXXOX+XOXoXOX+XoXOXOX+XoX",
"OX+X+X+X+XoXoXoX X2X X2X+XoXOXOXOXOXOXOXOXOXOXOXOXOXOXOXOX+XOX X X+X+XoX2X X X.X XoX+XoX XOXOX.XOXXXOX+XOX+X+X+X+XoX+X+X+XoX+XoX",
"XX+XOX X.XoXoXoX{..XoXoX+X+XoX+X+X2XOX+X2XOXOXOX+X#X+X+X+X.XOX.X X X X2XoX2X.X2X+X+X+X+X2X+X+X.X+XoX+XoXoXoX XoX.X.X X XOXOX.XOX",
"oXOX+X#X$X$X$X+X+X#X+X+X+X#X+XoX#X#X2XOX+XOX+X+X2X+X+X2X#X+X+XOXoX2XoX2X2X+X2X2X+X+X+X+X+X2X2X2XXX+X@X@X@X+X+X+X+X+X2X+X2X#X+XoX",
"2X2X+X2X@X@X+X@XoX@X@X@X+X+X+X+XoX+X.XOX XoXoXoXoXoX.XoXoXoXoX XOXoXoXoX X2X.X.XoX XoXoX.XoX.X+X+X+X+X+X+X+X+X+X2X+X2X2X+X2X+X2X",
"+XOX+XoX+X+X+XoX.XoX{.|.XXXXoXoX.XOX.X X XoXoX.X.X.X X.X.XoXoXoX XoXoXoX X!. X.XoXoX X.X.X.X.X.XoXoX.XoX X X.XoX.XOXoX+X+XoX+X#X",
"OXoX+X.X+X.X.X X{..X{.{.{.|.{.{..X|.|.|.{.{.{.{.{.{.oX{.{.{.|.{.{.{.{..X{.{..XoX{.{.{.XX{. X X X{.{..X{.|.{.{.|..XoXoXoXoXoXoX+X",
"{. X X X X{.{. X{.{.{.{.{..X.X|.|.{.XX`. X{.{.|.{.XX{.{.{.{.9.{.`.{.{.|.{.{.{.{.{.`.{.`.XX{. X X.X{.|.{.{.|.{.{.{.{.{.{.{. X{. X",
".X X X X.X.XOX.XoX X.XoXoXoXoXoX.XXXI./././._.XX+XXX+XoX+XK._ oXXXY.(.q., < A.oXXXXXOXI./.Y. XOXoXoXoXoXoXXXoXoXoXoXoXXXOXOX.XOX",
"oXoXOXoX.XoX+X.X XXXoX.XoX|. XoX`./ .. .%.*.+.e.OX+X+X+X`.L 7.q.o.A ..+.t.Y._.+X+Xw.o... .C #.Y.XXXX|.oX|.XXXX|.XXXXXXXXOXOXoXoX",
"2X+X#X2X2X2X$X#X#X#X$X+X+XoXOX XK W H.R.y.>.;.F 0.{.XX`.( z b %.%.P Z.oX.XoX+XQ.+. .;. .` ^.l.O.).oXoX@X+X$X#X#X@X2X@X$X#X2X+X2X",
"oX XoXoX.X.X X X.X.XoX X{. XXX] B.,X>X>X:X&X>.;.S 4.Q.2.$. .:.&. .V o.h.K. XP.P :.:. .V.>X3X:X5./ XX X|.XXXX|..X X X.X.XoXOXOX X",
".X.X.X.XoXoX.X.X.X.X.X.X X X`.m.3X3X3X3X>X>XR.=.&...G %.&.&.;.&.V d V S b / P &.;.-.M.>X3X3X3X>XR.'.|.|..X|..XoXoX XoX#X.X.X.X.X",
"+X+XoX#XoX.X.XoX.XoX+X#X+XoXA.3X3X3X3X3X3X>X>X' &.S &.;.&.;.&.$.M B $.A x %.S  .;.T :X>X3X3X3X3X-XP.oX+X+XoXoXoXoX X.X.X+X+X+XoX",
".X.XOXOXoXoXoXoX X X XOX.X.XV.3X3X3X3X3X>X3X3XH.x ;.;.&.&.;.&.;.&.M B ;.%.&.&.x Z *X>X>X>X>X3X3X-XN..X X X X XoXoX.XoXXXXX X X X",
"+X.XoX.XOX.X X X X X.XoX+X.XV.3X3X3X3X>X>X>X3XB.&.&.;.V d  .;.:.&.&.&.;.B d %.%.= :X>X>X3X3X3X3X-XN..X.XoXOX X XoX X.XoXoXoXoXoX",
" X{..X.X.X.X.X.X.X.X X.X.X.XV.>X3X3X3X3X>X>X-XZ &.&.B s &.&.&.;.&.;.;.&.%.x d &.*.*X3X>X3X3X3X3X-XI..X.X.X.X X.X X{.{..X.X X X.X",
".X.X.X.XoX.X.X.X.X.XoXoX.XoXN.>X3X3X>X3X>X>XB.&.&.&.S ;.&.&.&.&.;.&.&.;.&.&.V  .%.G.3X>X3X3X3X3X*XQ..X.X.X.XoX X.XoXoXoX.XoX.X X",
"oXoXOXoX+X+X+XoX+XoXoX.X.XoXQ.-X3X3X3X3X3X:XK &.&.;.:.:.;.&.;.;.&.;.:.:.&.;.&.;.;.T >X>X3X>X>X>Xn._.oX X.XoXoXoXoXOX+X.XoXoXOX+X",
"OXoX+XoXoXOX.XOXoX X.X.X X2X Xm.3X3X3X:X3X;XS &.;.&.&.m O.=.;.;.;.:.:.X.L B &.&.;.,.-X,X&X>X>X:X{  XoX+X.X.X.XOX+X+X.XoXoXOX2XOX",
"+X#X.X.XoX.XoXoX+X+X+X+X+X.X+X~.:X3X3X-XE.[ -.;.&.&.L <X6Xy.;.;.:.;.=.'.5X2 A &.;.,.S.%X>X>X>X%XW.oXoX+X#X#XoX#X+XoX+X#X+X+X+X2X",
"+X+XoX#X#X#XoX#X+X.XoX+X+X.X.X!.E.3X3X3X-Xn.&.&.;.=.D.5X4X1X%.;.;.;.o.5X4X4Xn &.;.,.,X3X3X3X;X2 .X.X+X+XoXoXoX+X.X#XoX+X.X.X+XoX",
"oXoXXX X X|. X{.{.{.|.{.{.{..X.XA.&X>X3X>XM.&.&.&.>.<X> : D.$.;.;.;.o.F.> D.P :.;.W ,X>X3X>Xn.'. XoX{.|.XX{.{.{. X{. X X XXXoXoX",
" X X XXX XoX X X X{.{. X.X{.{. XOXA.S.,X>XS.&.;.&.&.0.. . o :.%. .$.=.+   < ..:.;.U :X>X,Xn._. X X{.{.XXXX{.{.{.XXXXXX X X X X X",
"2XOX+X+X+X+XoX+XOX+X@X+X+XoX+X#X+XoXP.n.n.1 $.&.;.&.A V B B ..L     o.M X B %.;.&.v m.S.N.].OX+X+X+XoXoX+X+X+X#X+X+X+X+X+X+X+X+X",
"OX+X+X@X+X@X#X+X@X@X@X+X+X@X.X+X+X+XOXOX XI ;.&.&.&.;.&.%.m i.x.T ; c.* s x  .:.:.$.; +XOX+XOX+X+XoXoX@X#X$X$XoX+X+X+X@X@X+X+XoX",
" X.X X{.{.{.{..X{. X{.{.{.[.{.{. X.X XoX'.& &.&.;.;.;. .$.@ p.v.k.p.c.- z A %.;.&.&.% ].oXXX{.{. X{.{.{.{.[..X{.{.{.{..X X.X X X",
"+X+X.XoX.X.X.X.XoX+XoXoXoX.X.X.X.XoXoX.X X_ $.&.&.;.&.;.%.n a.z.i.a.i.s. .&.;.&.&.&.=  XoXoXoXoXoX XoXoXoXoXoXoXoX.X.X.XoX+X#X.X",
".X{..X{..X.X.XoX.X.X.X{.{.{..X{.{.}.{.{.oX).U  .:.&.;.&.-.%.<.v.s.p.c.O.&.&.;.&.%.c Z..X{.{.{.{..X{.{.{.{..X.X{..X.X.X{..X.X{.{.",
".X.X{.{.}.{.{.}.{.{.{.{.{.{.{. X.X.X.XoX{.{.).) c -.V a Q ! *.<.z.k.R $.M j k %.R J.|..X|..X.X.X{.{..X}.{.{.{..X{.{.{.{.}.{.{..X",
".X.X.XOX.X.X.X.X X XoXoX+XoXoXoXoXoX|.oXoXoX{. XZ./ O i i e k -. .-.%.l w i 3 8. X X{. XXXoXXX{.oXXXoXXXoXXXoXoX.X.XoXoX X XoXoX",
".X#XOXOXoXoXoXOXoXXXoXoXoXoXoXXXoXoXXXoXoX+XoXoX{./ g y i i i a 8 p 7 u i i 3 _ .X+XoXoXoXoXoXoXoXOXoXoXOXoXXXOX.X#XoX+XoXoXoXoX",
" X X X]. XOX X X].OXXX]. X]. XXX{.`.`.`.{.|.|.).I %.S q i i u q 5 5 5 i i i 9 C Z. X X X{.`.{.`. X X X]. X X XOX X X X X1X X XOX",
"{. X X]. XOXOX XXX XXXXX X X].].XXXXXX|.XX|.`.; $.;.$.0 i i i u r 4 t i i t F :.K '.{. X{. XXX X X X X X XXXXX XoXoX X X.X X X.X",
" XOX X].]. XOX X XXXXXOXXXXXXX].{.XX XXXXX{.8.B &.;.V N t i u J x.k.^ u u 8 &.&.S 9.{.{. XXXXX{.]. X]. X XOXXXXX X X]. X.X X X X",
"OXOX+X+X2X+X2XOX@X+XOX+XOX+X+X@X+X+X+XoXoXK.c ;.&.&.x &.h ~ W v.v.v.x.J 6 x ;.:.&.T oX+XoXoX+XOX+X@X@XOX@X+X+XXXOX+X+XOX#X#X2XOX",
"2X2X2X2XOXOXOX2X@X+X@X@X@X@X@X2X+X+XOX2XXXY :.&.&.A d $.4.v.v.v.v.v.v.f...x :.;.&.Z I.@X+X+X+X@X@X@X2X@X+X2X+X+X2XOX2X2XOX2X2XOX",
"OX].OXOXOXOX XOXXXOXXXXXOXOX+XOXXXOX/.}.r.%.&.&.G _ S Z x.v.v.v.v.v.v.k.B & E &.;.%.3.q.{.OXXXXXXXOX+XXXXXOXOXOXOXOX X XOXOX XOX",
"XX X XXX X XXX X XXX XXX{. X{. X Xj.A $.%.&.%.Y {._ &.E b.v.v.v.v.v.b.z.n f A.G %.&.;.! @.{. X XXXXX{.{.oX.X.X.X.X.X.X.X X XXX X",
"XXoXXXoXoXoX{.oX.XoXoX{. X.X.X X.Xj.@ S $.&. .h._.L %.u.b.v.v.b.b.b.v.c.,.D I.Y.X. .=.&.c Q. X.X{.{.{.oX}.{..X{.oX.X.X XoXoXoXXX",
"oX+XoXoXoXoX{.XXoX XoXoX+X.X.X.XoXJ...E %.; 2.h.W.s %.3.v.v.v.v.b.v.b.b.K  .w.P.Z q.T.G @._..X.XoX.XoXoXoXoXoXoX.X.X.X.XoXoXoXoX",
".X X X X X X X{. X{. X X.X.X.X.X X_.Y.h.( oXoX X|  .%.a.b.v.v.v.v.b.b.b.v  .] {.Y. X.X_.{..X.X.X X X.X.X.X.X.X.X{.{..X{..X X.X X",
"{..X.X{.{.{.}.{.{.{.{.[.{.{.}.{.}.{.}.{.{.{.{.{.) $.%.d.v.b.v.v.v.v.v.c.X...8.{.{.{.{.{.[.{.[.{.[.{.}.}.{.{.{.{.{.}.{.}.{.{.{.{.",
".X{..X{.{.{.{.{.{.{.{.{.{.{.{.{.{..X.X.X.X.X.X.X7.V &.1.x.b.v.v.v.v.b.f...C J.{.{.{..X.X.X.X.X.X{.{.{.{.{.{.}.{.{.{.{.}. X{.{..X",
".X X.X.X.X.XoXXX.X.X.X X{. X{..X.X{.}.}.{..X.X.X!.K &.&.O.f.v.v.b.b.f.X.&.$ }.{..X.X.X.X.X{.[. X.X|.|.|.{.|.|.|..X|.oXoX.X|.oXoX",
"oXoXoX+XoXoXoX X.XOXOXoX.X.X.X XoX.X.X.X.X.X.X{..X) $.;.:.*.#.g.d.d...;.&.% {.{.{.{..X.X X.XoX X.X.X|.|..X.X.XoXoXoX|.|.oX+X+XoX",
".X.X|.XX{..X{.{.{..X.X{.{.{.{.[.{.{. X X.X.X.X X X) &.;.&.&.-.%.:.%.&.;.;.# ]. X!. X X X X X[.[. X X[.{.{.{. X X.X{.{.{. X.X.X{.",
"#X+X#XoX+X+X+X$X#X#X#X+X+XoX#XoX+X+XoX+X+XoXOX+X].U ;.;.;. .# * & $.&.;.&.f Q. X2XOX2X X.X2X2X X+XoXoXoX+XoX+X+X#X#X@X@X+X+X#XoX",
"oXoX+XXX+X+XOX+X#XoX+XOX+X+X.XoX+XoX+X+XoXOX+X+X!.f ;.;.&.%.0.+X'.L %.&.;.*.A.OX2XOX+X+X2X2X X2X+XoX XOX+X#X2XOXoX+X#X+X+X+X+X+X",
"|.XXXXXX X{. X X X XOX X X.X X X X{..X.XoXoXOX.XJ. .:.:.:.Y  XOX].w.z :.;. .|  X X X X X X X X].XX X X X X.X X X.X|.|.{. X X X X",
"XXoXoXoX.X.X X X X X X.X X.X X X.X.X{.[.{. X.X X_ $.&.&. .2.)._.= A &.&.&.&.q.{..X.X X.X X{. X X X X XXX X[. X X[. X X X XXXXXoX",
"+XoXoXoX+XoXoXoX.XOX.XoX.X+X.X.X.X.X.X{.{.{. X X'.2.H -.$.z 0._.` D %.C X.Y K.{. X.X X[.{.{. X.XXX XoXoXoXoXoXoXoX+XoXoX+X+XoXoX",
"oX+X@X+X+X+XoXoXoX+XOXoXoX+X+X.X#XoXoXoXOXoXoXoX+XoX`.N.0.N.W.+XXX'.Q. XoXoXoXoX.X.XoXoXoXoX+X+X+X+XoX+X+X2X+XoX+X+XoXoX+X+X+X+X",
"+X+X+XoXoXoX+XoX.XoX.X.XoXoXoXoXoXoX+XoX+X+X+X+X+X$X@X+X+X+X@X2X@X@X@X@X+X+X+X+X+X2X+X+XoX+X+X+X+XoXXXoX XoXoX+X+XoXOX+XoXoX+X+X"
};
