/* XPM */
static char *_55ca99c349d48e9c7564bee5382086d8Ix0A2FvkGmXEjZv[] = {
/* columns rows colors chars-per-pixel */
"64 64 204 2 ",
"   c #7FBF5F",
".  c #7FC447",
"X  c #77C64E",
"o  c #7CC64E",
"O  c #77C84E",
"+  c #7AC84D",
"@  c #77C653",
"#  c #7BC653",
"$  c #77C850",
"%  c #7BC954",
"&  c #7EC45A",
"*  c #7DCA58",
"=  c #7DC460",
"-  c #87C43C",
";  c #8BC23D",
":  c #8FC235",
">  c #93C435",
",  c #92C63B",
"<  c #94C83F",
"1  c #85BE5C",
"2  c #8ABD5D",
"3  c #85BD64",
"4  c #8CBC62",
"5  c #8BB66B",
"6  c #86BC6A",
"7  c #8BBB6A",
"8  c #91BC63",
"9  c #9EBE6B",
"0  c #94BE7C",
"q  c #85C445",
"w  c #89C442",
"e  c #81C64C",
"r  c #89C748",
"t  c #82CA4D",
"y  c #8ACA4B",
"u  c #8ECA44",
"i  c #90C340",
"p  c #93CA45",
"a  c #98CD47",
"s  c #94CD4A",
"d  c #99CE4A",
"f  c #81C554",
"g  c #82CC55",
"h  c #89CE53",
"j  c #82C35B",
"k  c #89C25D",
"l  c #83CE5A",
"z  c #8ACC5C",
"x  c #84D156",
"c  c #8AD256",
"v  c #84D25B",
"b  c #8ED65E",
"n  c #8AD45D",
"m  c #8BDA5E",
"M  c #94D456",
"N  c #9BD552",
"B  c #9DD855",
"V  c #90D75E",
"C  c #93D75E",
"Z  c #9AD659",
"A  c #91D95E",
"S  c #9EDF5D",
"D  c #A5D84E",
"F  c #A0D44B",
"G  c #A2DA56",
"H  c #A6DE59",
"J  c #ABDE55",
"K  c #B5E35C",
"L  c #82C261",
"P  c #8CC363",
"I  c #8ACD62",
"U  c #8CCC63",
"Y  c #8BC36B",
"T  c #8ECA6D",
"R  c #84C861",
"E  c #93C466",
"W  c #96C36B",
"Q  c #99C36E",
"!  c #94CB6A",
"~  c #9CCD6F",
"^  c #86D360",
"/  c #8BD561",
"(  c #8DD661",
")  c #8CD661",
"_  c #87D862",
"`  c #8FD863",
"'  c #8BDC62",
"]  c #8EDD62",
"[  c #8DDB63",
"{  c #8FD26B",
"}  c #8FDE69",
"|  c #91D463",
" . c #93DC67",
".. c #92DB64",
"X. c #9ADF64",
"o. c #93D56A",
"O. c #93DD69",
"+. c #9ADF69",
"@. c #8FC378",
"#. c #94CF71",
"$. c #9BCE70",
"%. c #9CCD7B",
"&. c #94D473",
"*. c #9BD273",
"=. c #9BD47B",
"-. c #95D479",
";. c #A0DE63",
":. c #A4C170",
">. c #A0CB71",
",. c #A6C57F",
"<. c #A8C977",
"1. c #A3D276",
"2. c #A4D47A",
"3. c #A5DB79",
"4. c #AADB7D",
"5. c #8FE164",
"6. c #8FE369",
"7. c #91E166",
"8. c #9AE066",
"9. c #94E26A",
"0. c #99E46C",
"q. c #97E86D",
"w. c #9BEA6E",
"e. c #9CE771",
"r. c #9CEA72",
"t. c #A2E263",
"y. c #AEE764",
"u. c #AFEA69",
"i. c #B5EB64",
"p. c #B3EC69",
"a. c #BBF26C",
"s. c #B5F269",
"d. c #A0EE74",
"f. c #A2F275",
"g. c #BBF270",
"h. c #C6F96E",
"j. c #CAFD75",
"k. c #C6FF7A",
"l. c #CBFF7B",
"z. c #D4FF77",
"x. c #D1FF7B",
"c. c #9EDA80",
"v. c #A6C782",
"b. c #ACCD86",
"n. c #ACDC82",
"m. c #A5D68D",
"M. c #A8D78F",
"N. c #AFDB8E",
"B. c #ADD481",
"V. c #B3D182",
"C. c #B2DB86",
"Z. c #BDD887",
"A. c #B3DE8C",
"S. c #BFDA89",
"D. c #B1DF96",
"F. c #AEEA8C",
"G. c #B2E486",
"H. c #BEE38C",
"J. c #B4E28A",
"K. c #AEF08C",
"L. c #B3F48C",
"P. c #B3E995",
"I. c #BDEE9C",
"U. c #B7E295",
"Y. c #B2F491",
"T. c #BCF19B",
"R. c #BAF999",
"E. c #BBFA91",
"W. c #CEFF82",
"Q. c #C3FD9D",
"!. c #C3F698",
"~. c #E3E79D",
"^. c #D5DFAA",
"/. c #CEEEA2",
"(. c #C2E9AC",
"). c #D0EFA3",
"_. c #C6F5A7",
"`. c #CCF6A5",
"'. c #CFFFA3",
"]. c #C8F7A9",
"[. c #C4FAA8",
"{. c #CBFCAB",
"}. c #C4F2AA",
"|. c #D7F7AB",
" X c #D2FCAC",
".X c #DBFDAB",
"XX c #C5EBB0",
"oX c #DCE9B5",
"OX c #D6E4B1",
"+X c #D5FCB5",
"@X c #DAFFB6",
"#X c #DBFDBB",
"$X c #E4E7A2",
"%X c #ECF4A5",
"&X c #ECF3A9",
"*X c #E3FFBC",
"=X c #E4F6C2",
"-X c #E5FEC4",
";X c #EAFFC3",
":X c #EDFFCB",
">X c #F1FFC7",
",X c #F3FFCD",
"<X c #F6FFD3",
"1X c #F8FFD6",
/* pixels */
"# # # # c O + l f n ..n @ # @ # # l z b v # & @ $ $ % * @ # ^ @ # % # o c O $ z g C n v % * @ @ # l n n v $ # & $ % * # @ % v % ",
"# # z + r.+ + % l n ..o 1 j # # @ l c ( f # @ % v v % @ % % @ # # # l # f.+ * @ z m n f j j & @ f % n c $ # # % v v & @ % % % $ ",
"* % / $ % % $ # % ( ` k <.9 j ^ % @ c V + # l $ ] ] # @ # # l # l g ..+ # @ @ * l ( n k :.:.j l # # V m # # n # ' m $ @ % * n f ",
"% v ` # @ % # o f $ f j Z.V.1 @ # # # # % % # + q.5.# % # h ..o # f ..# $ * @ # f # # j Z.V.k # % # # o @ @ # + q.7.# # + c z f ",
"h | g h % @ # f # $ @ f 2 1 # # f # o f * @ % x m ' r.% $ v V # h  .f l % # # o # % % f 2 2 f # # # # & @ * % * m ] r.% $ ` ( # ",
"h n V t # *  .# g # # @ j { f # # ( # # @ * $ O 5.' * % f f f f l V n # # #  .# f $ # @ f U # # f ( @ * & @ # # 5.7.* @ # f j j ",
"v n n # @ % l # w.+ # n j R I f # n * @ @ * $ % 7.] * j j 2 2 j z C c # # @ l # w.+ % R f z U # # b # % @ * @ + m 7.* % j 2 1 1 ",
"h v v $ @ @ @ % o o # / % j I | l z @ * @ @ ` # x / $ j J.8 n.1 h b v # @ # # # + # # I f l U o.l v # + * @ } O x m # j G.4 n.2 ",
"% * % % $ g + ' # # # & @ # & # # n m # f + @ @ + # # j Q C.P & # * # # % v % m % & & & # # & f $ n b o o f # # O $ $ j W B.P j ",
"# @ @ # 9.$ # { L 2.=.3 & # f # # ` m e e Z e # l o # j 4 2.2 j # @ @ $ ] + $ { L =.*.L & % @ # $ m b o q C e # v $ # j 4 2.k 1 ",
"* @ % $ ' # % j 5 :X:X7 j # # # $ # f e , x.e # g + l o j 1 n.2 j % @ % ] X # j 7 :X:X5 j @ # # # $ + q ; x.e # # # h % f 1 3.8 ",
"$ $ $ [ n r.@ j -X=X=X+X1 f  .g * # # q ; z.G q e $ v g $ & *.2 # $ # 9.` r.o 1 #X=X=X#X3 # +.g l %   e ; z.B q # # l g # & ~ 2 ",
"# w.+ f.' v # 1 >X^.oX:X3 & g  .# # f f . w z.D e v x c @ & j f # w.+ d.5.v @ L :XOXoX:X3 * f  .# # # f q q z.F o l h | & * & f ",
"+ x * 5.' $ R 3 V.,X,Xv.!.L z b o e e C # q h.p e # n ( @ & # + + m t m 5.% l L b.,X<Xv.T.L n b # # r C o e j.< o $ n ( @ # # # ",
"t + O 7.' * & #.7 ].I.5  Xn.| ( # t w l.t.e q f # * / v * @ % # + + + m 6.* & T 7 }.I.7  Xn.! c + e w W.t.. q e # # x ( & * @ @ ",
"w.+ + 7.n * j R.-.L = 1 ;XW k ( v h w y.h e # # @ # # # * # @ # w.+ + m 5.* & R.n.  = 1 *X8 I b n h w y.y g $ # # $ f # # @ % @ ",
"+ x + ( v @ j Y.{ & & j & j & % @ $ g e e # # @ * @ % % * * n $ + x o n ( & L K.&.L l j j j & @ # # t o f # + % @ % $ $ # l ^ $ ",
"+ w.o # % % j & & % ^ % # @ % % * v % $ # # # # @ q.$ % @ @ % + + r.# $ # # & & & @ z # + @ % % $ l f # f # # % @ 9.% % * # % $ ",
"+ + % * @ # * # # * v c # o $ w.@ l # # ..h # * * * v / * # l + + # * @ @ # * * @ * l b # # $ w.$ * % # ..h # * * * _ _ & # c # ",
"# # % @ O.# # # $ + c ..f # + * @ # # o n +.@ % % * } # # # o.# # % @ % 9.$ # % % $ n b # % + % # # % # A 8.# @ @ * ' @ # # ..# ",
"# # ^ # n n % # w.+ c ] # o.% @ @ @ # / n c # % $ 7.] % # # # # # # c % x v * @ r.+ b n # O.# @ $ # # b A h # % $ 9.' $ & * # # ",
"n # * # + ..# % # + # % # % @ % # / # # n c # % $ ` 5.# j U j # | o % @ f ( % % + + + # o # # * # ' # # m v % % $ ] ^ % 1 I & & ",
"c g % % c m + ..g % $ $ + $ # v # l * # n n v % $ % * f D.`.&.# z l % @ ` m + ` l h # # + # # l # l $ # | v g % % # * j A.`.-.= ",
"h ( $ $ v ..+ 8.x f # m % v + v h h @ @ # f $ # = L & 1 U.;X&.& z n @ * v c + 9.l g # m g v # v c f # $ # % # & L = & j A.-X=.= ",
"# ` # % # l # # # # o # [ ' % z ( g # % # # & L XX(.  * & &.& # # b # # % * # # # f # $ ' ' $ l n g f # @ @ * 3 XX(.3 & L o.& * ",
"@ % # @ # # & # ..+ # 0.[ O $ ( b ..f % # @ j %.1X1X%.& & & & # @ % @ % @ # % f O.# # 9.[ $ # n M S # # * @   1.1X1X%.= j & & @ ",
"# # # O.# @ # # % O $ 7.] # # n n m # % v l 6 ;X$X$X;X5 L j * % % @ $ 9.# @ % @ * # $ ` [ $ # n m m # # z & 3 ;X~.~.;X5 3 j & # ",
"# % # c + # e e # + . c ] + # l m x # # ` { 6 *X&X&X#X6 {.1 & % % @ # n & % e f f # e x [ $ $ v m x # % ( o.3 *X%X%X*X6 +XL j @ ",
"# n z o # e w a.q e s.w o % @ # % # $ + n +.j Y ,X:X6 L @X  & % + b l + # e ; s.q e i.- + % # @ # % # o C +.# Y :X,X3 L @X  * * ",
"# l n l g e ; x.N N l.; f l @ % @ # ` t z n # & m.m.  & & j * + # g v g l y ; z.B B z.- t l # % # # ' # ..h #   m.m.L & & L * @ ",
"+ l b 0.+ e r p.p ; u.r c # % @ % # 9.+ # # + % & j & * & & # # # h x 0.# o q p.p ; y.q z # & # # % ..+ # # @ * & = & * & & # # ",
"# h b c n # o q l.s q o # # # % @ # o # # # # ] @ @ * @ @ @ / # # % z m c # o r l.s r f # $ # * @ @ $ + @ % @ O.@ * * @ % @ z # ",
"# c V n c # # e l.s e # $ # * # l o # ` % $ v x % # # # # l ..# # b x ` b # # r k.d e # # % * % l @ # ' $ % v v @ % # # # n / # ",
"@ n V b n + # # h q e $ % v % # # # # % O v 5.O @ @ % + o 9.l + # | n ..^ $ % # r r o % @ l % $ % % @ % $ v ] $ $ @ l # # O.z # ",
"@ # z l # $ $ $ f o # n # l # * @ # @ % % 5.' ' l $ * # x ..c ` o f g v # % @ f e o # v % * # g @ @ # % % 9.5.' * % * # v c n C ",
"@ f j j # $ $ # # # # n m # # # # l * @ $ 6.] q.$ $ v # e ..b + # # f f & @ $ # # # # ' | # # % & & * * $ q.5.q.$ % l % # b b e ",
"# j G.Q j % ' + + % * g n . # f 1 T j # * * ] v v % @ % + A b # # k C.E j # ` o # * l f V e # # j ! j # @ g 5.v v $ % # # n A o ",
"j k 8 <.4 f 9.+ * + # # C +.f 1 W ! k f # 5.5.v v v l * g { f % f k 8 >.j # +.# f # $ % V X.f j ! P k f * / 6.v v v l f # m x # ",
"2 3.$.8 2 k f + ..# + ` b z 2 1.8 8 4.j # .._ m v % # 0.@ * @ # j 3.Q 1 2 k f @ ..# # n V z 2 1.E P 3.1 # ' ..v v * # 0.@ @ # # ",
"k j j j G.1 j # + $ $ m ( I 1 2.4 4.2 j % % _ v + # + # @ % & & j k # j G.1 j # # % + n ` z L 2.2 4.2 2 & % ' v $ $ + # & * % & ",
"# f & & U j | o # o % @ f * j j l k 1.2 f # + # @ % # o % @ * @ # # # j I j | # # # $ % % # j j j P 1.2 f # # # % $ # # # @ % @ ",
"h # l * # # b # # l @ # % # # @ # j ~ 2 | g % $ * % # # # # + # g # % # j # / # # l @ @ # g # # @ f *.1 | g % # % * # # # # $ $ ",
"` # j # # # # # @ @ & @ # c # h # # f # V 0.# % # # . q # # w.+ 5.# % @ j * # * # # * # # l # g % # f f A 8.# % * # f f # # 0.+ ",
"@ & & # # # # # # * * & # o f ..# * # n b c f # % # S 1 e e A + # # % j # @ @ $ % % # # + f + ` f % # ( A h # # @ g X.w e + A + ",
"L j P j o.% $ v v % @ / + # o  .l # # # c n # # l e x., p e t j j L k f ..+ $ ^ v % o n % $ # ..n # # # ` g # % l e x.> p q + # ",
"Y T. Xk f # # 5.7.$ * # % f # g | g g # / c l f / e l.: l.w e O.3 R.'.2 f o + ' } O # # % g # h ` g # + ` c g g ( r l.> l.w e ..",
"0 +X|.W P f % 9.5.* @ % * # g b n ( # # # o # v l # e w l.; # j @.#X`.2 k e g 9._ * $ % $ $ g ( c ` # + o # # c g f e r W.w f # ",
"}.U.;X2 Q.f g m ' e.@ % v + # b b v # % % # # ( l # # # Z q f L [.D.;X2 !.f f m ' q.# % v $ # | ( c # # # # # ` f # # # Z w # % ",
"& L 1 1 Q.R @ } ] x % % 9.o # n n l $ * * @ & v l f @ # # o # & & L 1 2 [.R # } m v # # 9.o # ( n g # f j % % v * $ # # o f # # ",
"@ @ L.k j = * ] ] * @ z ( # # # % # v @ * % # # # # % # % @ # # * & E.j j & $ 5.m v # v n # # f % # v g @ # * % $ # # # @ # # # ",
"@ & K.R & * # l / # & $ b n # # # # $ # l $ % $ + + # # v + # % @ & L.& # @ % v ^ @ @ # ` n # @ # # # # v @ $ # + + + # ( f # o ",
"* * & & @ & # # # @ @ # m c # j 1 j & & % $ ` $ q.O % v n # $ # @ # j & & * # # * * % # b v & & j j # # % $ 9.+ w.+ # ` n o # $ ",
"@ * # * # @ l # % & @ * v f * ! .XH.j @ * % v # v w.+ ( n # % % * # # & # & * % @ & @ @ l j & o..XH.j # # * v $ c w.$ v ( l * $ ",
"% @ e o # # + # # # @ @ % @ j =./..XE & % 5.v $ + + # ' v # l v * # g e # # + $ @ @ * # @ # & 2.).|.P j % m v $ O + # z ` $ l ' ",
"] o N i w e # # n % & @ @ # Y.T -XN.{.P w.] ' # + + % * # + $ 7.7.o p ; r e o $ n # @ @ * & Y.T -XN.+X2 d.m m $ + + & * * # O } ",
"9.t j.K g.r + $ ` $ l @ @ # & & 6 6 [.U m ' ] @ % % * @ # # # 7.9.t l.i.i.y + # ( # l l # * = L 3 6 [.L  .m 7.$ # % @ * $ $ + ' ",
"v c t.a z.G e @ % #  .# % # & j =.P.L # ` 5.` % & & * & $ * 9...x c S p x.G q $ # f o.# # # % = =.P.L & O.' 9.# % j # & # v 7.n ",
"6.t w p J ; e v & # # o # * / # ! F.& # % ^ % & l T I j % $ x ] 5.+ w p G ; e v @ # f # # # / j #.F.& % O v @ j j / U f f # x m ",
"7.+ ; j.B q e w.# f o # % $ ( # j j & @ $ $ % @ ..j ~ 4 j # l ] ] e ; l.H q o q.@ # # o # % ( % & & * @ # O # # O.f ! 2 % $ x ' ",
"* e ; a.C e o + # # 9.o @ z ( h # @ @ * $ % % l n f >.! j # % v g + - g.M e + O % # O.g # c ..f # @ @ $ # # # l n k >.E # % % * ",
"* # e e f + # o + # g $ # # ( h # # # % * @ % * n | 4.>.& @ # @ # # e e # o # + # # g # $ * b h # # # g # # # z V C 4.~ j % @ @ ",
"* $ # % # # # o n l # z # l / l $ # b c @ % % v n f 2 8   l # * % # # # # # # # v x # v # g b h # o n n # * # g n k 2 2 # z @ * ",
"@ # % * # 0.@ % v h / % @ % # # # # A 8.# j # z v h f f & * l $ @ @ $ * # 9.# % l z n f % % # # # # ` 8.# @ @ g n l # j # # * @ ",
"% % $ ] + g & % # / ..# & & # # # n c m f # * @ # # @ * * @ l $ % * O / + h @ @ # b ..# @ * & # # n m c # @ % # # # * @ @ % l $ "
};
