/* XPM */
static char *ac54c8457d0a477ad053947d27da113ah0JRLlbxIMI5sHdW[] = {
/* columns rows colors chars-per-pixel */
"64 64 196 2 ",
"   c #D87D06",
".  c #BC832C",
"X  c #D68500",
"o  c #DD8902",
"O  c #DB8208",
"+  c #E58B05",
"@  c #E1870F",
"#  c #EB8F0B",
"$  c #EB9301",
"%  c #E7930C",
"&  c #EE9B0C",
"*  c #E6990D",
"=  c #F09504",
"-  c #F29208",
";  c #F39C0D",
":  c #EB8E17",
">  c #EC9E15",
",  c #E6911C",
"<  c #E5991F",
"1  c #F39D11",
"2  c #F89D11",
"3  c #F6A30B",
"4  c #F9A40C",
"5  c #F5A90A",
"6  c #FEAD0D",
"7  c #F5A206",
"8  c #FEB40E",
"9  c #FFB80E",
"0  c #EDA215",
"q  c #EAA119",
"w  c #EDAF1E",
"e  c #F4A313",
"r  c #FAA712",
"t  c #F4AB13",
"y  c #FCAC12",
"u  c #F7AC1F",
"i  c #FDAE1B",
"p  c #E7B719",
"a  c #EDB019",
"s  c #FEB512",
"d  c #FCB914",
"f  c #FCB61A",
"g  c #FABA1C",
"h  c #F5BE1D",
"j  c #CA8E35",
"k  c #D79837",
"l  c #DA9A3C",
"z  c #E4932A",
"x  c #E09738",
"c  c #EEA82F",
"v  c #EBAE22",
"b  c #F0A929",
"n  c #F5AD27",
"m  c #E8B424",
"M  c #FBB521",
"N  c #FABD22",
"B  c #F6B02A",
"V  c #F8B42F",
"C  c #F4BA2A",
"Z  c #EFB03C",
"A  c #F7B230",
"S  c #F5BF31",
"D  c #F8B435",
"F  c #F6C42D",
"G  c #FDC52D",
"H  c #FAC926",
"J  c #FDD32C",
"K  c #FCCE32",
"L  c #F9CF3D",
"P  c #FDD334",
"I  c #FCD43B",
"U  c #FDD83F",
"Y  c #D39E40",
"T  c #E7B145",
"R  c #EABB44",
"E  c #EABA4B",
"W  c #E9B849",
"Q  c #E9B758",
"!  c #EABE5C",
"~  c #ECBA53",
"^  c #DDBB64",
"/  c #E9BD6B",
"(  c #F1BC60",
")  c #ECBE71",
"_  c #FBD645",
"`  c #F7D947",
"'  c #FDD945",
"]  c #FCD74A",
"[  c #FEDA4A",
"{  c #F8CF51",
"}  c #FADD5C",
"|  c #FCD952",
" . c #E6C06F",
".. c #E9C068",
"X. c #F5D763",
"o. c #F8D966",
"O. c #E8C176",
"+. c #EEC37A",
"@. c #F0D77B",
"#. c #F2D974",
"$. c #F6E07B",
"%. c #E7BD83",
"&. c #E6C384",
"*. c #E7C887",
"=. c #E7C28D",
"-. c #ECC688",
";. c #EFC98B",
":. c #ECC286",
">. c #EED68A",
",. c #E9CB99",
"<. c #F3CC95",
"1. c #EED99D",
"2. c #EBD395",
"3. c #F0DB98",
"4. c #F3DB91",
"5. c #F5E68B",
"6. c #DFCAAD",
"7. c #E1C7AA",
"8. c #E5CCAE",
"9. c #E7CBAA",
"0. c #EAD2A5",
"q. c #EFD9A6",
"w. c #E4D0AF",
"e. c #EFD6AE",
"r. c #EEDDAD",
"t. c #F4D4A4",
"y. c #F2DCAD",
"u. c #F4D7A4",
"i. c #E6CEB2",
"p. c #E9CEB3",
"a. c #E6D1B5",
"s. c #ECD2B7",
"d. c #EDD2B7",
"f. c #ECD1B6",
"g. c #E9D4B7",
"h. c #EBD5B6",
"j. c #ECD5B6",
"k. c #EDD6B7",
"l. c #E9D1B5",
"z. c #EDDAB4",
"x. c #E7D3B8",
"c. c #E6D0B8",
"v. c #E9D1B9",
"b. c #EBD1B8",
"n. c #E8D3B8",
"m. c #EAD2B8",
"M. c #EBD3B9",
"N. c #EAD2BB",
"B. c #EDD3B8",
"V. c #ECD2B9",
"C. c #EDD3B9",
"Z. c #E9D4B9",
"A. c #E8D4B9",
"S. c #EAD5B8",
"D. c #EBD6B9",
"F. c #E9D5BA",
"G. c #E8D4BB",
"H. c #EAD5BA",
"J. c #EAD6BB",
"K. c #EBD6BB",
"L. c #E9D6B8",
"P. c #ECD4B8",
"I. c #EDD5B9",
"U. c #EED4B9",
"Y. c #ECD4BA",
"T. c #EDD5BB",
"R. c #ECD7BA",
"E. c #EED6BA",
"W. c #EFD7BB",
"Q. c #EFD5BA",
"!. c #EBD5BD",
"~. c #EBD7BC",
"^. c #E8D7BD",
"/. c #ECD7BC",
"(. c #EED6BC",
"). c #EFD7BD",
"_. c #EDD7BF",
"`. c #EDD5BD",
"'. c #EBD5BA",
"]. c #EDD8BB",
"[. c #EDD8BD",
"{. c #ECD8BD",
"}. c #EED9BC",
"|. c #EFDABD",
" X c #EED9BE",
".X c #EEDABF",
"XX c #EDD8BD",
"oX c #F1D7B2",
"OX c #F1D9B4",
"+X c #F0D6BB",
"@X c #F1D9BD",
"#X c #F0D9BE",
"$X c #F0D9BC",
"%X c #F3E2B5",
"&X c #F7E5A7",
"*X c #F1DCC1",
/* pixels */
"H.H.H.H.m.(.~.H.^.H.~.H.(.H.H.P.P. XP. XH.B.+X+X+XB.+X+X+X(.B.v.p.G.+XB.+X(.B.(.+X+Xf.P.(.(.P. X(.R.H.H.B.P.~. X~.(.P.H.H.m.H.H.",
"m.P.(.P.B.P.~.~.H.H.P.f.H.m.l.H.l.a.l.g.i.x.p.p.i.i.v.j.p.f.v.p.p.B.f.p.B.m.p.l.p.p.i.f.B.l.l.f.g.g.H.g.f.+XB.P.P.m.+Xj.m.H.H.g.",
"i.w.i.i.i.i.p.i.i.i.i.i.i.i.i.i.w.9.8.i.i.w.8.8.p.w.i.8.i.8.i.i.8.8.8.w.w.p.i.i.p.8.w.i.i.w.8.9.l.i.i.8.i.w.i.i.i.i.i.i.p.w.i.i.",
"i.l.f.f.p.m.p.p.l.l.p.p.p.i.f.i.f.f.i.i.l.w.p.p.p.i.i.f.f.f.p.p.p.f.p.f.p.i.f.l.p.p.p.i.i.p.p.f.i.p.l.i.p.i.f.i.B.p.f.i.p.l.f.l.",
"B.B.x.x.i.p.p.m.i.m.m.m.+XB.B.B.m.m.m.m.l.l.l.l.d.p.p.f.p.p.p.l.m.p.p.p.p.p.f.f.p.B.p.m.l.l.l.l.j.P.P.m.B.m.m.m.p.l.p.l.f.f.B.B.",
"x.l.a.8.i.x.x.m.G.m.m.m.B.x.G.m.c.x.G.c.m.l.B.m.f.p.b.B.m.`.v.m.m.m.m.m.+Xf.P.B.B.m.m.m.m.x.m.x.~.P.m.B.i.m.p.i.m.l.p.8.i.i.m.p.",
"l.j.f.h.p.p.p.i.p.i.p.i.p.x.m.m.i.p.p.i.i.8.i.i.i.i.i.i.p.p.i.i.i.i.p.i.p.p.i.i.i.i.i.i.i.i.i.i.l.i.i.i.i.p.v.l.p.i.i.f.l.f.B.l.",
"l.a.l.l.p.m.m.l.B.m.B.m.B.m.m.m.P.P.(.P.P.m.}.P.+X+X+Xp.m.p.B.B.B.f.p.m.B.P.B.B.P.P.B.P.P.P.P.l.B.H.(.H.P.m.B.j.f.l.l.l.l.l.l.l.",
"x.x.x.m.H.H.H.{.`.G.m.(.*XG.*X*X~.H. XH. X~.~.(.P.H.B.m.(.x.m.*XP.H.f.P.P.H.P.~. X(.(. X X~.H.~.{.{.H.{.{.H.g.H.(.H.m.g.l.x.l.H.",
"~.*XH.~.*X X X(.(.(.*X~.G.G.*Xc.^.{.~.~.{. X X{. XP.~.~.~.~. X*X*X(.H.R.P.P. X X X(. X{.{.H.H.x.{.^.H.m.H.R. X{. X X X*X{.~. X X",
"x.m.x.i.m.m.m.m.m.m.m.m.c.x.c.i.x.x.{.x.~.H.{.{. X X~.H.H.~.~.(.H. X XH.H.~. X(. XH.H.~.m.H.x.m.a.a.x.x.x.x.H.g.H.x.l.m.l.m.m.m.",
"x.H.B.~.B.m.m.m.(.m.(.m.G.x.c.c.a.x.a.x.x.x.x.x.x.x.x.x.x.m.m.c.x.H.g.x.x.x.x.x.x.x.m.x.x.x.x.x.x.a.x.x.g.H.H.P.H.x.m.P.B.H.m.m.",
"x.m.i.i.p.m.p.l.i.a.l.l.B.P.l.P.(. XH.(.~.H.x.x.(.(.B.H.m.m.c.i.i.i.x.l.P.(.(.(.H.m.(.(.(.(.(.(.H.l.m.l.l.a.i.l.i.l.m.i.i.x.v.i.",
"p.(.`.*X(. X#XP.j.}.P.P.(.P.P.B.(.#X+XH.H.m.H.~.#X(.(.(.(.B.`.m.P.m.m.#X+X(.(.+XP.P.m.B.(.(.+X(.m.P.+X XP.}.P.P.P.(.(.(.*X(.`.m.",
"~.(.~.(. X X}.P.H.}.P.}.R.P.H.H.l.P.l.H.l.l.l.l.l.l.m.l.f.l.B.p.m.m.m.l.m.l.l.l.l.i.H.l.l.l.m.B.+XP.P.P.R.R.}.H. X X X X(.H.B.(.",
"(.(.G.x.(.P.f.l.l.i.8.a.a.a.l.l.i.l.i.i.i.i.p.p.l.i.i.p.p.l.p.i.i.l.l.l.i.i.i.i.p.l.i.i.i.l.i.p.l.l.i.l.a.8.i.x.l.l.m.H.m.B.`.*X",
"m.l.B.l.f.p.p.i.8.8.8.8.w.l.w.w.i.w.w.8.l.8.8.8.i.w.i.8.8.8.8.8.8.9.8.8.8.8.i.8.8.8.8.8.w.i.l.w.i.w.8.w.8.8.8.w.l.i.i.l.l.f.B.l.",
"i.i.8.8.i.8.i.i.i.8.8.8.8.8.w.w.i.8.a.8.8.8.8.w.8.8.8.8.8.9.8.6.6.8.8.8.8.8.i.8.8.8.i.8.i.w.8.8.8.8.w.8.9.8.8.8.8.8.8.8.i.8.i.i.",
"i.a.i.a.p.i.p.p.l.i.l.l.l.l.l.l.p.g.g.H.g.x.l.a.l.x.H.H.P. X(.}. X{. XP.P.l.l.m.x.a.H.g.j.j.x.a.l.x.f.f.l.a.l.a.l.l.l.i.i.x.i.x.",
"g.l.x.a.l.m.B.p.i.i.l.i.l.a.8.f.P.(.P.(.H.H. XP. XP.g.P.~.H.(.H.~.H.H.~.(.H.H.(.}.H.~.H.H.H.H.g.a.a.x.l.w.a.a.a.x.x.x.x.x.x.m.m.",
"}.}. X#X#X+X#X#X*X+X#X(.P.p.m.m.l.B.p.f.l.l.f.g.l.l.l.g.f.j.P.g.H.H.j.l.f.f.f.l.x.g.g.a.l.a.g.a.g.g.g.g.}.@X}.}. X X X X X*X(.(.",
"l.a.l.m.l.x.i.8.i.i.p.p.i.i.p.i.i.l.p.i.i.a.i.i.i.8.i.i.i.i.l.l.a.i.l.i.8.i.i.i.i.i.a.a.i.i.l.i.8.a.i.a.a.a.i.w.i.i.l.m.l.x.i.x.",
"i.l.p.p.B.f.i.p.p.p.p.p.i.i.i.8.8.8.8.w.w.i.i.w.l.l.8.8.i.8.l.i.l.f.8.i.8.8.w.l.a.9.8.8.8.8.8.8.8.8.8.8.l.w.f.l.l.i.p.P.l.i.i.m.",
"f.P.B.B.p.p.p.B.B.B.B.B.B.p.p.B.+XP.f.f.+XP.B.OXf.j.f.l.j.j.f.H.l.P.f.j.p.+Xp.j.f.a.+Xz.B.+XB.P.l.j.j.j.j.f.f.f.f.i.p.f.B.B.B.l.",
"p.l.i.m.l.l.p.m.i.i.c.i.p.i.c.i.i.i.i.x.i.a.l.l.l.x.i.i.i.i.p.i.i.i.i.p.i.i.p.v.p.a.i.i.i.x.p.p.p.p.p.w.i.p.p.p.l.x.l.i.l.i.p.c.",
"m.l.m.x.l.l.i.i.i.i.v.m.p.l.m.l.l.l.i.x.f.f.i.i.l.l.x.l.f.+Xl.l.l.H.b.B.m.m.p.p.l.l.l.l.i.i.p.f.p.p.p.i.m.p.i.i.i.i.l.f.p.l.m.p.",
"8.8.i.i.i.i.i.i.i.i.i.i.p.l.i.i.p.w.i.i.p.9.i.i.8.p.8.8.8.w.8.9.i.i.i.p.w.p.i.i.i.i.w.i.l.w.p.8.i.i.p.w.i.i.8.w.8.8.w.p.i.i.i.i.",
"f.f.i.i.f.f.i.i.p.f.p.f.p.f.p.l.p.f.p.f.p.w.p.p.p.w.w.l.p.w.8.l.i.8.i.w.p.w.p.i.e.p.p.w.l.w.oXi.f.p.f.i.f.f.l.l.l.l.f.w.i.l.p.i.",
"B.l.m.g.m.P.m.B.B.f.p.l.i.m.i.p.p.p.p.i.p.i.i.8.8.8.i.8.i.i.i.l.i.i.i.i.9.8.8.8.i.i.i.i.8.a.l.i.i.i.l.i.i.l.m.x.m.l.P.m.B.x.m.H.",
"m.x.m.m.m.x.x.m.p.x.i.x.v.~.`.B.B.+XV.b.V.V.(.m.f.+XP.B.P.#X#X#X*X*X+X+X+Xf.B.l.B.+X+XP.P.P.P.P.B.m.B.H.p.x.l.x.m.x.m.x.B.m.G.G.",
"P.B.B.m.f.B.B.B.B.B.B.m.B.l.B.m.v.v.b.v.v.v.v.v.i.i.f.f.j.l.l.l.v.v.b.b.B.p.i.p.p.d.p.p.l.p.m.p.B.l.f.l.B.P.B.B.P.l.p.B.B.B.+X`.",
"f.f.B.l.P.P.B.l.B.f.B.B.B.p.p.p.p.i.i.i.i.8.i.i.8.i.i.8.8.i.i.i.i.i.i.8.i.8.i.i.i.i.i.i.8.i.p.p.p.p.B.B.f.B.f.P.P.B.B.B.B.b.b.B.",
"l.m.l.i.8.i.8.8.8.8.8.w.p.8.i.i.i.i.8.8.8.8.a.8.l.w.w.8.i.a.r.3.>.;.0.a.a.8.8.i.i.i.i.i.8.8.i.i.i.a.w.8.a.9.8.8.8.8.i.i.i.i.l.x.",
"i.i.i.i.a.l.i.i.a.8.8.8.i.w.8.i.i.i.a.g.l.l.l.i.i.8.l.0.2.@.} ` _ ' } >.8.a.i.a.l.l.l.i.l.i.l.i.8.8.8.a.i.8.i.i.i.x.i.i.i.i.i.i.",
"~.~.m.~.H.H.m.G.g.g. XH.f.l.b.+XP.m.H.H.g.g.(.H.g.g.1.o._ P J J J I [ } 4.H.g.x.x.~.m.m.H.x.H.H.P.g.g.g.(.m.(.+Xx.H.(.H.H.H.H.H.",
"G.~.(. XP. X`.B. XR.(.H.+X#Xb.b.(.P.l.l.H.g.m.l.q.#.] P P p J J J ' L m { 1.H.x.x.H.x.(.x.H.H.P.P.g.P.P.`.`.*Xb.H.P.*X(.(.(.P.m.",
"i.i.i.i.8.8.9.i.i.i.8.8.8.8.8.i.i.8.8.h.8.w.8.2.} P P J J H J J P ' p a S X.1.i.i.8.i.i.l.p.8.8.i.8.8.8.7.7.9.i.8.i.i.9.i.i.i.i.",
"b.B.p.p.p.p.p.b.l.f.p.l.p.p.i.i.i.f.f.l.h.8.9.o.I P J J J J J J P ' U h F [ $.z.i.8.i.p.l.l.p.l.p.i.p.oXb.b.d.d.p.p.p.f.f.f.+Xp.",
"p.8.i.i.p.p.p.p.p.p.i.w.8.8.i.8.8.9.9.8.l.l.*.F F F K K P P P F a C I P U [ } 5.OXi.w.f.8.i.8.8.i.w.w.8.i.i.p.i.p.i.p.8.p.8.i.8.",
"9.i.i.9.8.9.9.9.p.8.8.8.9.w.8.i.p.w.8.l.8.a.) M s f d g f H G 0 e e F I ` | | o.&Xw.w.i.i.i.l.i.i.8.8.9.9.8.i.8.i.9.8.8.8.9.p.p.",
"p.d.i.x.i.i.p.i.i.i.x.l.l.l.x.i.l.l.a.a.l.e./ f 8 s d t s d f t r y N K I _ [ | ^ p.i.i.i.i.i.i.l.a.m.i.l.x.l.H.p.p.p.v.p.i.l.p.",
"p.d.i.c.x.m.l.m.c.a.x.l.l.l.x.c.m.l.l.l.l.y...f 9 s * X y s 8 s d d d d f g N v Y OXl.l.l.x.l.l.l.x.H.x.x.l.x.x.b.b.p.v.m.l.m.m.",
"i.i.c.i.i.x.i.6.c.w.i.i.i.i.i.c.8.6.6.6.8.q.E f 8 s 7 $ s s 8 8 d s s s 5 s f e k e.i.i.8.8.8.6.8.i.8.6.8.i.i.i.i.i.i.i.c.i.i.p.",
"i.i.i.i.i.i.x.x.i.c.c.a.i.i.6.6.a.a.a.w.w.u.R g 8 d y 5 s s s 8 8 s s 5 5 s s q j f.8.i.i.i.i.i.i.i.i.i.i.x.i.i.p.v.i.v.v.i.c.i.",
"i.i.i.i.i.6.c.i.i.i.x.i.i.a.i.i.i.i.i.i.i.3.R f 9 8 9 s s d g s 8 d 8 s 8 8 s > . j.i.8.i.i.i.i.i.i.i.i.i.x.x.a.a.a.i.a.i.i.i.i.",
"^.^.^.{.*X*X^.^.H.~.~.H.^.{.x.~.H. XP.P.g.y.R g 8 8 8 8 f u o y d 8 8 8 9 8 s q j y.m.H.l.m.l.H.x.~.^.G.~. Xg.x.g.H.x.{.(.~.~.^.",
"{.{.*X{.~.^.^.~.P.~.~.H.~.{. X X}.H.~.H.}.%XE f s d 8 s r O   % 8 8 6 s 8 s f q l oX(.(.~.H.H.H.{. X{.{. XP.H.H.x.^.x.{.^.{.{.{.",
"c.a.x.a.i.c.i.x.x.x.m.x.m.x.m.H.l.x.x.l.x.y.E f s 8 9 s ;     # 8 6 6 8 s s f b k e.m.m.m.m.x.x.x.x.m.x.l.a.x.x.x.g.a.a.a.c.a.c.",
"x.8.i.a.i.i.i.i.l.i.p.x.i.i.8.i.i.i.p.8.a.y.E h 8 8 8 s ; # # & 6 3 6 6 s d >   l t.i.i.i.i.i.i.i.a.8.w.i.i.i.w.p.i.p.p.i.i.p.i.",
"i.x.a.l.x.l.i.i.l.l.p.8.8.i.i.i.i.i.l.i.8.r.E M 6 5 8 8 r ; ; 4 6 3 6 6 6 i >   l t.i.i.i.i.p.i.8.8.w.i.i.i.i.p.p.p.p.i.p.B.m.p.",
"H.P.l.l.l.l.i.i.i.l.l.l.b.b.p.p.l.p.p.p.l.%X! M r y t s 8 4 r r 6 6 6 6 6 6 2 @ x t.P.P.p.p.p.p.f.f.p.p.B.p.p.p.p.p.p.p.m.l.l.l.",
"i.i.i.8.i.i.i.i.i.i.i.8.p.p.p.p.i.i.l.i.l.%X/ B + + 1 s s s y s 6 6 6 6 6 6 ; # z <.p.i.p.p.p.i.i.i.p.p.i.i.p.i.i.i.p.i.p.i.i.i.",
"8.w.8.w.9.8.8.9.8.8.8.8.8.9.7.i.9.9.8.9.9.z.O.c $ - + 6 8 s s 6 6 i M y 6 6 y 1 : ;.f.8.w.9.9.9.7.9.8.9.9.8.8.9.9.8.9.7.8.8.8.w.",
"p.8.p.i.8.8.8.8.9.8.8.8.9.i.9.i.9.p.i.i.l.z.&.Z $ - - 6 8 s 6 8 6 e o e 6 6 y ; : :.j.i.i.i.i.i.8.8.8.8.9.6.8.8.8.8.8.8.8.8.8.p.",
"p.i.p.i.i.i.l.i.p.i.i.i.i.i.7.p.w.w.8.9.8.l.,.:.B r y 6 6 6 6 6 y 4 $ ; 6 6 r - , %.j.w.l.9.9.8.i.w.9.9.8.8.w.e.i.i.e.i.f.w.p.f.",
"f.f.f.P.f.B.p.l.p.p.b.p.i.v.p.i.w.l.l.f.w.8.i.i.i.i.-.D V V i 6 6 6 7 y y 6 y 1 l t.8.p.i.i.i.i.l.l.w.l.a.h.l.w.j.l.w.l.l.j.j.f.",
"p.w.8.w.l.8.8.8.i.i.8.8.8.9.9.6.i.i.8.i.i.a.i.i.i.8.i.i.i.8.%.) ( A s 6 6 6 r < ,.i.i.i.i.p.i.8.i.8.9.6.8.8.i.i.8.8.i.i.i.i.i.i.",
"+X}.+Xg.l.j.}.@X+X+X#XP.P.j.B.l.P.P.m.P.B.l.m.(.v.v.i.v.c.m.v.v.p.&./ Q ~ T T +.~.m.m.m.m.m.m.x.P.l.x.l.B.P.B.P.+X+XP.R.B.P.B.B.",
"f.g.x.H.f.H.H.x.P.H.(.H.(.m.m.l.l.l.f.f.m.m.m.m.m.B.B.`.G.v.`.`.H.~.H.g.H.}.+XP.G.~.m.m.~.~.~.~.H.g.a.x.P.P.H.}.P.R.P.H.~.^.P.(.",
"i.i.a.a.i.i.i.i.i.i.c.a.i.i.i.i.i.i.l.f.m.m.l.i.i.c.i.v.p.v.i.v.p.i.i.i.l.i.i.x.i.x.i.i.i.m.i.i.8.a.a.8.i.x.i.i.i.i.i.i.i.i.i.i.",
"x.i.l.l.l.i.i.i.i.8.i.i.i.i.i.i.p.i.8.8.7.i.i.i.i.i.i.i.p.p.i.p.l.l.i.i.p.i.i.i.i.i.i.i.i.8.i.i.i.8.a.i.i.i.i.i.8.i.8.i.i.p.l.l.",
"j.l.P.m.m.l.l.l.l.l.l.l.m.m.p.p.p.i.w.8.i.i.i.8.i.i.i.7.i.i.i.p.p.p.p.i.i.i.8.i.i.p.i.8.8.8.8.p.a.a.l.l.l.m.l.l.l.l.m.l.x.H.l.m.",
"m.(.(.(.(.m.l.l.x.l.l.m.l.m.B.b.f.m.b.p.b.p.v.p.v.v.p.v.m.m.m.B.m.x.v.x.m.m.p.p.l.l.m.m.p.p.m.G.P.P.l.P.m.(.B.m.P.m.m.m.m.H.(.(.",
"m.m.m.l.B.l.g.l.x.l.p.p.l.v.B.p.m.B.B.`.V.V.`.V.b.*X*XV.H.(.(.(. X(.~.(.~.~.B.+X+X(.P.B.m.`.(.m.(.m.x.m.x.m.i.m.G.m.m.m.m.m.m.m."
};
