/* XPM */
static char *be9bb7828efa40aef935f8963bc338b81DzgwTxD1z3B4ufh[] = {
/* columns rows colors chars-per-pixel */
"64 64 252 2 ",
"   c #5C9D03",
".  c #5F9712",
"X  c #679B17",
"o  c #699D0D",
"O  c #55A505",
"+  c #5CA305",
"@  c #5BA50B",
"#  c #5CAA0C",
"$  c #59A907",
"%  c #5DAA11",
"&  c #5BA514",
"*  c #64AB03",
"=  c #6BAC03",
"-  c #64A70B",
";  c #64AB0C",
":  c #6BAC0C",
">  c #66A507",
",  c #74AD04",
"<  c #72AD0C",
"1  c #78AF0E",
"2  c #71A70C",
"3  c #65B203",
"4  c #6CB303",
"5  c #64B00D",
"6  c #6DB10B",
"7  c #6AB800",
"8  c #74B305",
"9  c #7BB404",
"0  c #74BB02",
"q  c #7DBC03",
"w  c #74B40C",
"e  c #7BB50B",
"r  c #7CBB0B",
"t  c #77BD0C",
"y  c #65A513",
"u  c #6AA514",
"i  c #65AB12",
"p  c #6DAC13",
"a  c #6DA31C",
"s  c #6CAC18",
"d  c #64A81B",
"f  c #72AD12",
"g  c #72AB1B",
"h  c #76AC16",
"j  c #69B113",
"k  c #74B313",
"l  c #7CB512",
"z  c #76B812",
"x  c #7CBA13",
"c  c #74B31C",
"v  c #7BB41A",
"b  c #7CBA1B",
"n  c #73B91B",
"m  c #699927",
"M  c #75993A",
"N  c #688B25",
"B  c #6DA427",
"V  c #73A424",
"C  c #74AB22",
"Z  c #7BAA2B",
"A  c #78A829",
"S  c #7BB523",
"D  c #7BB625",
"F  c #7CAC32",
"G  c #78A438",
"H  c #7CB236",
"J  c #7DC101",
"K  c #7CC20F",
"L  c #749B40",
"P  c #7DA347",
"I  c #83BD02",
"U  c #83BC0C",
"Y  c #8ABE0B",
"T  c #84B70B",
"R  c #82AE1F",
"E  c #82B514",
"W  c #83BB13",
"Q  c #8ABD14",
"!  c #85B41C",
"~  c #83BB1A",
"^  c #8BBD1B",
"/  c #92BE18",
"(  c #84AD29",
")  c #83B524",
"_  c #83BC22",
"`  c #8CBC23",
"'  c #8CB52A",
"]  c #8CBA2C",
"[  c #87B728",
"{  c #95BC2B",
"}  c #91B926",
"|  c #83AD34",
" . c #82AD39",
".. c #89AB37",
"X. c #8AB233",
"o. c #89B839",
"O. c #93BA34",
"+. c #99BE34",
"@. c #95BC3B",
"#. c #94B639",
"$. c #84C401",
"%. c #8BC304",
"&. c #84C10C",
"*. c #8CC30C",
"=. c #8CCC00",
"-. c #91C30F",
";. c #85C112",
":. c #8BC213",
">. c #85C21B",
",. c #8DC31C",
"<. c #8EC91A",
"1. c #92C513",
"2. c #94C913",
"3. c #92C41C",
"4. c #94C81C",
"5. c #9BD31B",
"6. c #8AC326",
"7. c #94C422",
"8. c #9CCC2A",
"9. c #97C726",
"0. c #9AD121",
"q. c #8FC133",
"w. c #98C537",
"e. c #9FD134",
"r. c #A3D32D",
"t. c #A9CF3C",
"y. c #849C51",
"u. c #86A747",
"i. c #88B245",
"p. c #98BA48",
"a. c #8BA955",
"s. c #94B455",
"d. c #96BD5B",
"f. c #98B657",
"g. c #8EB257",
"h. c #A2BB5F",
"j. c #9AB766",
"k. c #9BAB7A",
"l. c #91B068",
"z. c #A8BD73",
"x. c #87966D",
"c. c #99C541",
"v. c #9DC454",
"b. c #9EC957",
"n. c #A3C848",
"m. c #A4C355",
"M. c #A3CA54",
"N. c #A8CB59",
"B. c #AAD558",
"V. c #B2D25C",
"C. c #A8D543",
"Z. c #9EC666",
"A. c #A7C967",
"S. c #B3CD68",
"D. c #ABC977",
"F. c #B3CC7D",
"G. c #B8CD7E",
"H. c #B8D777",
"J. c #B5D667",
"K. c #BFE369",
"L. c #C1DF7B",
"P. c #C7E378",
"I. c #8B8E86",
"U. c #909889",
"Y. c #A6B493",
"T. c #B2BCA7",
"R. c #BBBDB8",
"E. c #A6ABA2",
"W. c #9FB199",
"Q. c #B3C788",
"!. c #B9D888",
"~. c #BAC995",
"^. c #BCD998",
"/. c #ADCF86",
"(. c #BEE18D",
"). c #BBC9A4",
"_. c #C4DD87",
"`. c #C5DC98",
"'. c #CAE588",
"]. c #C7E499",
"[. c #D2E696",
"{. c #D6F794",
"}. c #D1F28E",
"|. c #E8FF98",
" X c #C8D8A5",
".X c #D4DBB6",
"XX c #C4CEAF",
"oX c #C9E7A4",
"OX c #D5EAA9",
"+X c #D9F5A6",
"@X c #D6EAB4",
"#X c #DBF4B6",
"$X c #CFF5A4",
"%X c #E5F9A9",
"&X c #EBFFBC",
"*X c #E4F9B8",
"=X c #F2FFB9",
"-X c #BEBDC2",
";X c #CDD4C4",
":X c #D7DCCB",
">X c #DCE7C8",
",X c #DAF3C6",
"<X c #EBFEC4",
"1X c #E6FCCC",
"2X c #EAFCCA",
"3X c #E6F9C4",
"4X c #F4FFC2",
"5X c #F4FFCE",
"6X c #FAFFCD",
"7X c #EAEDD8",
"8X c #E9F4D4",
"9X c #ECFDD5",
"0X c #ECF4DC",
"qX c #EBFDDB",
"wX c #E6F7D8",
"eX c #F4FFD4",
"rX c #FAFFD4",
"tX c #F3FEDB",
"yX c #FBFFDC",
"uX c #F1F6D8",
"iX c #E4EEC9",
"pX c #DCE7E3",
"aX c #EAEFEA",
"sX c #EEFCEB",
"dX c #EDF7E6",
"fX c #F4FDE3",
"gX c #FBFFE4",
"hX c #F3F5ED",
"jX c #F5FEEB",
"kX c #FCFFEC",
"lX c #F3F7E6",
"zX c #F4F4F4",
"xX c #F5FDF3",
"cX c #FDFEF4",
"vX c #F6F5FC",
"bX c #FBF6FF",
"nX c #F6FCFC",
"mX c #FDFBFF",
"MX c #FAFEFE",
"NX c #FFFFFD",
"BX c #FEFEFD",
"VX c #FFFDFF",
"CX c #FFFCFF",
"ZX c #FCFFFF",
"AX c #FDFEFF",
"SX c #FFFEFF",
"DX c #FEFFFF",
"FX c white",
"GX c #FEFEFF",
"HX c #FCFDFE",
"JX c #FEFEFD",
"KX c #EEF0FC",
/* pixels */
"FXFXFXFXNXNXNXcXNXNXNXNXNXNXNXcXJXxXFXMXcXlXrXgXkXcXcXcXkXkXjXNXmXCXcXgXkXNXFXCXFXNXcXFXFXCXCXCXFXFXFXFXCXFXCXCXCXFXCXFXCXCXMXFX",
"FXFXFXFXNXNXNXNXNXNXcXNXcXNXNXNXNXMXMXMXNX0X.XyXkXcXmXmXJXcXcXJXCXFXkXkXkXNXFXCXNXNXNXNXCXCXCXCXFXMXMXFXFXFXFXCXCXFXFXFXFXFXMXMX",
"FXFXFXFXFXNXNXNXNXNXNXNXNXNXNXNXFXMXnXMXFX8Xz.%XkXxXmXNXvXFXNXbXCXFXcXkXcXmXCXCXFXNXcXcXFXCXCXCXFXMXFXNXNXNXNXmXNXNXNXFXFXFXFXMX",
"FXFXFXFXFXFXFXNXNXNXFXNXFXNXFXFXFXFXCXFXMXtXs.G.eXcXNXnXmXCXFXCXCXmXxXcXcXnXCXCXFXFXcXcXNXFXFXNXJXcXJXNXNXNXNXFXmXNXNXNXJXcXJXNX",
"FXFXFXFXFXFXFXFXFXFXFXFXFXFXFXFXNXbXFXMXxXyXp.i.^.9XgXjXFXFXzXmXmXMXcXcXNXFXCXmXFXNXkXcXcXNXNXcXcXcXcXNXFXNXCXFXFXNXFXNXJXNXcXcX",
"NXNXFXFXFXFXFXFXFXFXFXFXFXFXFXFXmXbXFXcXjX5XN.( s.!.].`.qXNXCXmXMXMXcXkXcXFXCXCXFXNXcXcXcXcXcXcXcXNXNXNXNXFXFXFXFXFXNXcXcXcXcXcX",
"NXNXNXFXFXFXFXFXCXFXFXFXCXFXFXFXmXcXNXjXfX].o.[ o.o.q.@._.rXcXCXMXJXjXtXdXJXmXmXFXNXcXcXNXcXcXcXcXcXNXcXFXFXFXFXFXFXNXNXFXcXcXcX",
"NXcXNXNXFXFXFXFXCXFXCXFXFXFXFXFXFXNXxXjXtXD.B 6.6.>.5.4.+.'.yXkXjXfXeX3X8XcXMXmXFXFXcXcXNXNXcXcXNXNXNXNXFXFXFXMXCXFXFXNXNXcXcXcX",
"NXcXNXNXFXFXFXFXFXFXFXCXmXFXCXmXFXFXMXjX@XG H c r J =.%./ n.[.rXtX5X].Q.3XlXMXmXFXCXNXNXFXCXNXNXFXxXnXMXFXMXMXMXCXFXFXFXFXNXcXJX",
"NXNXNXNXFXFXCXCXCXbXCXFXFXnXcXNXCXmXMXxXoXm B p 0 J $.$.Y / h.F.'.!.p.s.*XgXNXmXFXFXFXFXFXCXFXFXFXFXFXJXvXnXFXFXMXMXMXnXFXMXJXJX",
"NXcXNXNXFXFXFXFXFXCXFXFXFXcXcXmXFXnXnXsX/.m d - 7 0 U :.%./ { p.A ..p.M.+XrXkXFXCXCXCXFXFXCXFXFXFXFXFXFXMXFXMXnXMXMXnXnXFXFXFXFX",
"NXNXNXNXFXFXCXFXFXFXFXxXNXcXcXhXMXnXnXdXv.d C p = 7 E 1.2.2.9.{ ' ) ` O.L.rXkXFXFXFXCXFXCXCXCXCXFXmXnXJXJXJXcXnXxXNXFXJXFXMXmXFX",
"NXNXNXNXFXFXFXFXFXFXNXFXcXcXkXkXsXjXjX1Xo.f g p = w v D &.*.3.7.` ` 7.` N.=XgXnXFXFXCXFXCXCXFXFXFXFXNXkXhXkXkXjXwXxXxXJXMXFXmXCX",
"NXcXNXNXFXFXCXFXFXxXcXcXcX7X7XgXyXeX#X'.[ E b : : k b ~ $.$.U T = U 0.8.p.OXgXmXNXFXCXFXFXCXFXNXzXNXNXhXkXkXwX).>XfXcXcXFXMXmXFX",
"NXcXNXNXFXFXFXNXFXmXcXcXkX7X:X X+XH.m.w.~ ,.~ u u f 0 q $.$.W x :.U q ^ #.].gXcXNXFXmXNXFXNXNXNXhXxXcXkXgXeX).x.>XqXkXcXNXMXmXCX",
"NXNXNXNXNXFXFXNXNXNXNXkXcXcX:Xk.u.Z [ 6.<.:.e x u f 8 0 $.$.>.v E &.Y r.' S.&XkXcXFXNXCXCXNXkXgX8X2XeXeX#XY.a.y.1XfXjXcXNXFXmXmX",
"NXcXcXJXJXNXNXcXcXNXxXcXcXxXsX,XF ! w.l 5.2.q r f f < 8 q U ~ ~ E T Y 1.{ ' S.6XcXmXbXmXFXcXrX=Xf.N.B.b.F A A j.eXcXcXxXFXCXCXFX",
"MXMXJXJXJXcXNXNXNXNXNXJXnXnXxX9Xv.h 6.b x K r r f u 2 1 r x E ~ W / Y 1.1.{ J.6XcXvXmXCXzXgX4XA.] D k n f D S m.9XcXJXmXFXFXCXFX",
"MXMXFXFXCXFXFXFXCXFXFXFXMXnXMXkX(.B Z D 6 = b k p i i < k z l x E :.Y 1.7.+.H.5XcXMXmXMXkX&XH.#.w.6.K D p g C p.qXMXFXmXFXFXmXFX",
"MXFXFXFXFXFXCXFXCXCXFXFXFXJXMXjX@Xi.Z 6.< : n i i - - i p w w e U :.Y / / +.G.3XjXMXxX8X&XH.X.w.6.6.b n u g a g.dXnXFXCXFXFXcXNX",
"FXFXFXCXFXFXCXCXCXCXCXNXNXNXcXkX1XD.F ) w 6 j % % $ $ # i p 6 r U &.-.Y ` #.F.2XjXcX9X`.p.O.7.^ K z = u p [ A g.qXMXFXCXFXFXcXJX",
"FXFXFXFXCXFXCXCXCXCXmXcXcXcXcXkXjX].| ~ r 4 5 % # $ O $ - i 6 w r &.%.-.` #./.eXfXtX{.v.R Q ,.:.>.>.k w p D Z d.wXnXFXCXCXNXcXcX",
"NXMXFXFXFXCXCXCXCXCXCXCXFXNXNXcXfX`.( ^ J 7 3 $ O O O + @ - f e U &.%.1.` X.F.5XeX+XN.[ 3.&.q <.= : : = : b [ b.1XxXNXcXNXmXnXNX",
"NXNXNXFXFXFXCXFXFXCXCXCXFXmXNXcXkX~.| w.&.0 K 3 O O O + - ; : l W &.%.-.^ [ A.4X+Xv.) ,.$.q U 4 v f > = l 6.x X.<XjXkXcXNXFXcXNX",
"cXxXNXNXNXxXvXNXNXnXcXFXFXFXNXzXkXrXh...^ 9 r 4 # % O + + > 1 b ,.W I %.Y ! n.}.m.c.7.%.$.J w z u : : z r K U R ].eXgXgXcXCXCXFX",
"FXFXNXzXNXFXNXcXNXcXNXNXhXzXNXcXcXgX@Xh.( ! x w s s i - * = < v ~ W I $.1.^ ' w.q.` *.$.J 0 p s u u < w e &.&.! s.Y.XX7XcXCXmXmX",
"bXFXFXMXMXxXNXcXxXhXdXxXMXMXNXNXNXcXkX*XA.X.b b D C s p = = < l E ;.U I *.1.^ ! ^ Q &.=.J w p a u p w 6 0 &.&.^ M k..XlXNXMXvXFX",
"FXnXJXcXkXfXtXyXeX@X^. X#XeXeXqXfXkXjXfX^. .[ ` S c c j 4 * : w l >.U 9 I -.3.0.:.:.*.$.r w i d u k z w r r &.! a.OXyXkXcXmXCXFX",
"iX.X`. X%X=X%X|.K.B.n.n.B.V.K.L.`.eXfXtX<XH.q.l r w j p : * 3 6 < x U U *.Y Y 1.Y Y U U e : y u g k k l K >.x X.^.tXkXcXcXFXFXvX",
"yXeX.XD.h.m.w.` / 7.8.r.r.9.8.w.N.!.*X<X&X}.[ W q 0 6 p y % # 4 l l e U 1.*.Y -.U T e e < : p s f z z b 6.D [ b.2XcXcXzXnXFXcXNX",
"cXkXtX@XD.f.#.w.9.3.,.4.4.9.8.e.C.q.N.b.A.M.l 5.$.q 0 p d & $ $ n l e U 3.1.Y 1.T T l e < ; : k w x z b D D c.}.fXMXFXFXFXzXcXcX",
"FXxXcXyXOXf...O._ W :.:.<.:.:.>.7.6.q.[ D ) 3.%.=.$.0 p & & O $ = l ~ W :.Q U Y T T e f 2 2 = 6 t x x D q.H A.5XxXMXbXCXFXmXjXkX",
"CXFXhXkXqXj.N q.v e r :.:.;.>.,.Q ~ ^ 7.9./ 1.-.%.*.;.x j 5 5 $ 4 9 U ;.:.:.&.:.W T e 1 < f k w t w >.S F !.&XjXFXbXbXmXCXcXgXyX",
"CXCXFXcXfX^.L G S w 9 U ;.;.~ ~ E T Q Q Y Y Y -.:.:.;.r z 6 3 * = 8 r &.;.&.U U U T , , < k k w 7 0 b A d.@XfXNXCXCXmXmXnXcXkXkX",
"mXbXFXxXjX2Xl.X C < 4 0 r b c v ~ U Q Y Y Y Y -.2.*.:.W r 4 4 = * , r ;.;.W e 9 T e 9 , , w e t J J ~  .!.fXcXdXhXkXcXcXNXFXFXCX",
"mXmXFXxXjXtX/.m C : * 4 w j k p l U Y Q Y Y Y -.-.&.&.;.K r w = > , e ~ W W T 9 9 , 8 8 9 8 r q q I E | H.<XtXgXkXgXgXcXNXbXbXCX",
"mXNXbXNXnXjX,Xg.B d 6 4 3 5 6 j 6 8 e U U &.Y Y Y Y Y %.&.U r 8 : < k b ~ ~ U r , 9 9 9 q K K &.9 Q ^ ! O.N.'.*XyXkXcXJXzXzXCXFX",
"kXcXzXNXnXsXqX^.G C 6 4 7 3 5 j = w e r U U *.Y Y Y Y U ;.r 9 w < f k l E ~ E U 9 9 U U U &.&.:.7.3.7.3.3.` X.v.F.@XfXcXcXcXcXkX",
"cXcXnXFXnXxXfX$XG D K 0 7 5 5 ; ; 3 6 4 8 r U U U T T U U U r e < f f k x l e e e e U &.;.;.;.;.,.T Y 1.5.0.^ )  .A.OX1X0X0XgXkX",
"FXmXCXFXnXxXqX$XH K K J 7 3 % % ; 5 5 * * 3 w 9 r U e r W W r w : < < 1 l e , , e U W W ;.x W W 4.Y 1.%.q Y 4.7.q.| u.j.k.k.XXgX",
"CXCXCXFXMXdXoXZ.X.E J J 3 $ % & O O # # 5 5 5 * 6 w x x x z w w w : = e e < , e T E W W E l x E Q e U :.W r r l v [ F m P  XkXaX",
"mXCXCXCXzX>XY.u.X._ ~ r 4 ; s % % $ $ % 5 # 5 6 6 6 w k z z z k w 4 = w e 8 8 e l E ~ E l 1 h l E , , , = = = < g a H H.,X9XjXkX",
"mXFXFXCXNXcXuXOXF...V g b v c i % O & % # + # i ; ; : 6 j k j z w = , w e w e r T E l e 1 2 u h o o 2 w 0 8 v c F Z.oX9XfXjXjXfX",
"kXcXcXxXNXFXcXkXyX!.a.i.| C g s % % @ @ @ @ + # - # ; ; 6 5 6 6 w 6 6 w e e e x l l l 1 2 2 2 h B a h f w w h V d.#XdXsXxXcXxXkX",
"fXkXcXcXnXCXbXvXcXfXtX*XF.G B C y d i @ @ - #   + + - ; ; ; : ; 6 : : < 1 l E ~ E l E e 1 1 e f S g f h E ) (  .].tXjXxXMXFXMXNX",
"jXcXcXNXNXFXFXFXCXFXcXjXtX4X!.G C f p > - p ; + + + > ; : : : ; ; i - - : l E E ~ E T E E E ~ E l 1 E W ! ' ..M ].fXcXFXFXnXzXCX",
"MXMXFXCXcXcXcXcXmXCXFXnXsXxXjX<Xo.b f v b k u w p 6 : : : = = : u y -   > < x e W W Q Q :.~ :.;.&.U :.Q / ' ..y.~.uXmXmXmXmXCXCX",
"mXMXCXFXcXkXcXNXFXvXCXFXMXnXxXeXB.^ e 6.9.>.x >.b l z 6 : * * > u p u . X V S R W W E Q Q :.:.;.1.:.7.{ +.V.'.OXeXkXcXCXmXmXCXmX",
"MXFXFXFXNXNXNXCXCXbXCXFXMXcXxX*X+.-.2.2.-.%.&.r ;.w z k z w = 8 b y H H.L u.p.w.! E E Q ^ Q :.} ) #.p.f.`.yXfXcXcXcXcXNXNXNXNXNX",
"MXFXNXNXNXFXFXCXCXCXCXnXjXkXiXF.w.-.2.2.2.%.*.U K x b b z w w w - C Z.3X^./.D. .O.` } ` E Q / / #.P.+X4XjXcXFXFXFXFXNXcXcXNXNXFX",
"FXFXNXcXcXcXNXFXbXCXFXxXgXrX[.m.C.8.0.3.Y x x k p k p k n D D C  .L oXwXwXY.+X!.n.+.{ } ! ^ / / N.=X6XyXkXxXMXvXFXFXNXcXNXNXCXCX",
"FXFXFXcXkXcXNXCXFXFXnXkXrX{.V.t.q.,.^ Q T l v c s s k : j S D B P k.sXsXxXW.XX4X'.V.n.+.} { { ( S.=XrXyXjXMXMXmXFXFXFXNXNXFXCXCX",
"FXMXFXcXcXcXNXNXmXbXcXyX4XP.t.t.,.W U r 8 w s -   = 0 0 8 z D i.l.wXxXnXnXpXU.eX4X_.V.h.p.@.+...j. XyXkXnXMXmXMXFXFXNXNXNXFXCXCX",
"FXFXFXNXNXNXFXFXmXcXkX5X[.N.{ 4.,.W U q 8 w s y - = 0 q $.>.D G ^.xXnXnXKXMXT.).rX*X[.'.[._.L._. XXXdXJXFXMXKXFXFXFXNXmXCXCXmXCX",
"NXNXFXFXFXFXFXFXmXfX@X`.D.p.#.( ) l 9 T e b D H q.>.q $.$.W Z G <XwXJXMXbXFXKXx.uXgXyXrXrXrXeXgXkXlXhXMXFXFXFXMXFXNXNXNXCXCXCXCX",
"cXNXFXFXFXCXFXNXhX.X`.Y.F._.{.}.N.w.] ) g V M m A c Q *.T [ J.oXeXgXlXJXmXvXvXR.R.lXgXlXkXkXkXcXzXCXFXFXMXvXFXvXNXNXNXNXFXCXCXCX",
"cXNXFXFXFXFXNXNXdXuX9X9XeXeXtXeX4Xs.N u.s.l./.oX].u.p.' X.{.5XgXgXgXkXcXFXFXFXFXI.zXbXhXcXCXCXvXFXFXFXFXFXFXFXFXcXNXNXNXNXFXFXCX",
"FXFXFXFXFXFXcXcXcXkXkXkXcXxXcXjXwX~.~.@X<X9XjXjXyX[.y...[.6XkXcXcXkXcXcXNXFXCXCX-XR.mXcXFXbXbXCXFXFXCXFXFXFXNXNXcXcXcXNXNXNXFXFX",
"FXFXFXNXcXcXcXcXcXNXFXMXMXMXnXMXJXaXlXkXkXxXMXnXcX0Xk.~.yXgXCXmXFXcXNXcXFXFXFXmXKXU.hXcXcXzXmXCXCXCXFXCXFXNXNXcXNXcXcXcXcXNXNXNX",
"mXFXFXcXcXkXkXcXCXCXCXCXFXMXMXMXFXFXFXxXzXnXMXnXzXaX:XgXkXhXmXbXCXCXNXNXFXFXMXMXmXE.;XcXkXcXCXmXCXFXFXFXFXcXcXNXcXNXNXNXNXNXcXNX",
"MXMXFXNXcXcXcXNXCXCXCXCXCXFXFXCXbXmXCXNXcXFXFXFXFXhXkXcXhXcXCXvXCXCXNXNXNXJXnXMXMX:XE.kXkXkXFXbXCXCXFXFXFXNXNXcXNXNXNXNXFXNXNXcX",
"MXFXNXNXFXCXFXCXCXCXCXCXFXCXCXCXmXmXCXFXNXxXxXxXNXnXNXmXnXFXCXmXCXMXFXJXJXJXnXMXnXnXU.qXkXjXNXCXFXFXFXCXFXcXNXNXFXFXCXFXFXNXNXNX",
"kXcXcXFXmXmXmXmXCXmXcXcXcXcXcXCXmXmXCXNXcXcXcXcXhXMXFXvXFXFXzXFXCXCXJXcXcXJXMXMXMXMXE.;XkXcXmXCXCXCXCXFXmXNXFXCXCXCXFXCXFXFXNXcX",
"gXkXNXMXmXmXmXmXmXcXkXkXkXkXcXmXmXCXCXmXNXcXkXkXJXMXMXFXMXmXNXNXCXCXcXcXkXcXMXnXMXFX;XE.kXmXCXCXCXFXCXCXFXNXCXFXFXCXCXCXCXFXFXNX"
};
