/* XPM */
static char *db96c164ebb447a4c0c8abe2bd274d9fxQA9lR1APKk7MUaI[] = {
/* columns rows colors chars-per-pixel */
"64 64 203 2 ",
"   c #DFCAAD",
".  c #E0C7A9",
"X  c #E2C7AA",
"o  c #E1C7AC",
"O  c #E1C8AA",
"+  c #E3C8AB",
"@  c #E2C9AB",
"#  c #E1CAAB",
"$  c #E3CAAB",
"%  c #E1C9AD",
"&  c #E2C8AD",
"*  c #E0CBAC",
"=  c #E3CAAC",
"-  c #E2CBAC",
";  c #E3C9AE",
":  c #E2C8AF",
">  c #E0CBAE",
",  c #E2CAAE",
"<  c #E3CBAF",
"1  c #E4C9AC",
"2  c #E4CBAC",
"3  c #E5CAAD",
"4  c #E4CBAD",
"5  c #E4CAAF",
"6  c #E5CAAF",
"7  c #E6CBAE",
"8  c #E1CCAD",
"9  c #E3CCAC",
"0  c #E3CCAD",
"q  c #E1CCAF",
"w  c #E2CDAE",
"e  c #E3CEAF",
"r  c #E5CCAD",
"t  c #E4CDAD",
"y  c #E5CCAE",
"u  c #E4CDAE",
"i  c #E7CCAE",
"p  c #E6CDAE",
"a  c #E7CCAF",
"s  c #E6CDAF",
"d  c #E5CEAE",
"f  c #E5CEAF",
"g  c #E7CEAF",
"h  c #E6CFAF",
"j  c #E3C9B0",
"k  c #E0CBB0",
"l  c #E2CAB0",
"z  c #E3CBB1",
"x  c #E5CBB0",
"c  c #E4CAB1",
"v  c #E6CBB0",
"b  c #E5CBB2",
"n  c #E1CCB1",
"m  c #E2CDB0",
"M  c #E3CEB1",
"N  c #E2CDB2",
"B  c #E3CEB3",
"V  c #E4CCB0",
"C  c #E5CDB1",
"Z  c #E6CCB1",
"A  c #E7CCB1",
"S  c #E4CFB0",
"D  c #E7CEB0",
"F  c #E6CFB0",
"G  c #E4CCB2",
"H  c #E5CDB3",
"J  c #E7CDB2",
"K  c #E6CCB3",
"L  c #E4CFB2",
"P  c #E6CEB2",
"I  c #E7CFB3",
"U  c #E5CDB5",
"Y  c #E7CDB4",
"T  c #E4CFB4",
"R  c #E6CEB4",
"E  c #E7CFB5",
"W  c #E5CFB7",
"Q  c #E7CFB7",
"!  c #E8CDB0",
"~  c #E8CFB0",
"^  c #E9CEB1",
"/  c #E8CFB1",
"(  c #E8CDB2",
")  c #E8CEB3",
"_  c #E9CEB3",
"`  c #EACFB2",
"'  c #E9CFB4",
"]  c #E8CEB5",
"[  c #EACFB4",
"{  c #E9CFB6",
"}  c #E5D0B1",
"|  c #E7D0B1",
" . c #E5D0B3",
".. c #E6D1B2",
"X. c #E7D2B3",
"o. c #E4D0B5",
"O. c #E5D0B5",
"+. c #E6D1B4",
"@. c #E7D2B5",
"#. c #E5D1B6",
"$. c #E6D1B6",
"%. c #E6D2B7",
"&. c #E7D2B7",
"*. c #E7D4B6",
"=. c #E9D0B1",
"-. c #E8D1B1",
";. c #E9D0B2",
":. c #E8D1B2",
">. c #EAD1B2",
",. c #EBD0B3",
"<. c #EAD1B3",
"1. c #E9D2B2",
"2. c #E9D2B3",
"3. c #E8D0B4",
"4. c #E9D1B5",
"5. c #EAD0B5",
"6. c #EBD0B5",
"7. c #EBD2B4",
"8. c #EAD3B4",
"9. c #E8D0B6",
"0. c #E9D1B7",
"q. c #EBD1B6",
"w. c #EAD0B7",
"e. c #E8D3B6",
"r. c #EAD2B6",
"t. c #EBD3B7",
"y. c #ECD1B4",
"u. c #ECD3B5",
"i. c #ECD1B6",
"p. c #ECD2B7",
"a. c #EDD2B7",
"s. c #EBD4B5",
"d. c #E9D4B7",
"f. c #EDD4B6",
"g. c #ECD5B6",
"h. c #EED5B7",
"j. c #EDD6B7",
"k. c #E7D3B8",
"l. c #E9D1B9",
"z. c #EBD1B8",
"x. c #E8D3B8",
"c. c #EAD2B8",
"v. c #EBD3B9",
"b. c #E9D3BB",
"n. c #EAD2BA",
"m. c #EBD3BB",
"M. c #EDD3B8",
"N. c #ECD2B9",
"B. c #EED3B8",
"V. c #EDD3BA",
"C. c #E8D4B9",
"Z. c #E9D4B9",
"A. c #EAD5B8",
"S. c #EBD6B9",
"D. c #E9D5BA",
"F. c #E8D4BB",
"G. c #EAD5BA",
"H. c #EAD6BB",
"J. c #EBD6BB",
"K. c #ECD4B8",
"L. c #EDD5B9",
"P. c #EED4B9",
"I. c #EED7B8",
"U. c #ECD4BA",
"Y. c #EDD5BB",
"T. c #EFD5BA",
"R. c #EED4BB",
"E. c #ECD7BA",
"W. c #EED6BA",
"Q. c #EFD7BB",
"!. c #EAD4BC",
"~. c #EBD5BD",
"^. c #EBD7BC",
"/. c #EAD6BD",
"(. c #EBD7BE",
"). c #ECD4BC",
"_. c #EDD5BD",
"`. c #ECD7BC",
"'. c #EED6BC",
"]. c #EFD7BD",
"[. c #ECD6BE",
"{. c #EDD7BF",
"}. c #EED6BE",
"|. c #EFD8B9",
" X c #EDD8BB",
".X c #ECD8BD",
"XX c #EDD8BD",
"oX c #EED9BC",
"OX c #EFDABD",
"+X c #EDD9BE",
"@X c #EED9BE",
"#X c #EEDABF",
"$X c #EFDABF",
"%X c #F0D6BB",
"&X c #F1D7BC",
"*X c #F0D9BA",
"=X c #F1DABB",
"-X c #F0D8BC",
";X c #F1D9BD",
":X c #F0D8BE",
">X c #F0DBBE",
",X c #F0DBC0",
"<X c #F1DCC1",
/* pixels */
"G.G.G.G.G.G.^.^.^.G.^.G.^.G.'.^.^.G.^.^.b.'.K.'.'.7.'.'.^.'.c.Q Q N.K.'.'.&XG.'.K.).c.b.'.'.'.^.^.^.^.G.^.^.G.@X^.G.^.c.G.c.G.G.",
"c.K.'.K.K.d.G.G.G.G.c.7.G.N.c.7.7.+.7.7.7.W / 7.[ W Q 7.[ 7.Q 7.7.i.i.i.7.c.[ 7.[ [ [ 7.N.7.| 7.+.d.G.N.c.7.N.K.'.K.'.7.c.G.G.G.",
"/ J J J b J J W J J b J J g J J s s s / s s 5 5 g b b / b J J ; 5 5 s g a / b s ! g a s J 5 s s s J / 5 J s J J b s J / J J J s ",
"/ 7.7.7.[ 7.[ [ +.7.7.[ / W 7.J / 7./ / / 7./ 7.` / / 7.[ 7.7.7.i.7./ / / 7./ 7.` / / W / 7./ 7.7.[ [ / [ / [ / i.7.7./ 7.7.7.7.",
"c.c.7.+.W 7.[ c.W c.c.c.N.N.'.G.c.G.c.W [ c.7.7.N.i.Q 7.[ W c.7.7.7.[ [ [ 7.[ c.7.c.7.7.+.7.c.+.c.G.N.N.N.c.N.7.[ [ +.J c.7.c.c.",
"c.+.o.N W W Q c.c.Q b.7.c.k.b.c.W 7.c.k.b.c.b.K.7.[ c.c.N.N.7.N.Q Q k.7.N.N.N.G.N.7.c.c.c.G.c.+.G.G.b.c.l.7.+.J c.7.W J b J l.7.",
"7.j.c.7./ [ / J [ W [ W +.J c.7.W W 7.J K b 5 J W / / / [ W 5 b b J W b [ / J J J b J / J W / J W +.[ +.J W / 7.W / [ 7.N.d.7.7.",
"+.+.7.7.[ c.7.c.i.i.7.c.'.G.c.c.K.K.K.K.K.c.K.@XN.K.N.i.7.[ i.K.i.N.[ 7.N.K.K.K.K.K.N.K.K.i.K.G.j.7.c.K.c.7.N.j.7.7.[ 7.7.+.[ 7.",
"F.+.+.+.G.G.G.^.N.G.l.b.,Xb.,X^.G.^.@X^.^.^.@X^.j.G.c.G.'.c.G.^.@XG.j.G.G.d.K.'.'.^.'.@X'.^.G.G.^.,X^.^.@XG.G.G.'.G.c.G.7.W c.G.",
"^.,X^.'.@X@X@X'.K.@X,X,Xb.b.,Xb.^.G.G.^.^.,X^.@X X@X^.G.^.^.@X<X-X XH.K. XK.@X@X@X'.@X@X^.G.G.F.,X^.b.^.G.H.'.@X^.@X@X,X^.^.@X@X",
"F.G.k.Q N.c.c.b.c.c.c.7.l.k.B W F.F.G.F.^.G.^.^.'.@XG.'.G.^.@X'.G.@X XG.^.^.@X'.'.@XF.G.G.^.F.c.N B k.+.+.F.c.k.c.k.c.c.c.c.7.G.",
"*.G.c.'.K.c.c.c.'.G.'.c.c.c.#.k.+.k.+.k.F.*.+.F.+.F.k.k.+.G.c.W +.G.G.+.k.k.+.W +.k.+.G.+.k.+.W b.W *.d.F.G.G.^.G.G.c.K.c.N.c.c.",
"+.c.c.W W 7.7.7.J 7.7.7.c.i.7.G.'.@X^.^.^.G.k.k.@X'.c.K.c.Q Q W W J [ c.'.^.'.,X^.c.'.K.'.'.'.'.G.c.c.7.7.7.W / +.7.[ W +.c.c.W ",
"c.N.K.'.'.@X'.K.G.K.G.K.'.@XK.7.'.-X'.G.G.k.^.^.&X'.'.-X'.c.'.c.K.G.c.@X'.'.'.-X'.K.G.K.'.'.&X'.7.K.@X'. XK.K.K.c.'.'.'.&X'.N.c.",
"^.'.'.@X@X@XH.'.G.K.G. X XG.G.K.7.G.+.d.[ c.7.7.7.7.c.c.7.c.c.[ 7.7.c.7.c.7.7.+.W W i.+.c.+.N.c.K.K.K.K. X X XG.@X X@X@X'.^.K.'.",
"'.^.K.k.K.K.G.7.+.7.J +.+.+.7.+.J [ +.J J J | J W J s W [ [ [ / W [ 7.W J z b J / 7.J J J 7./ [ 7.7.W 7.| N J +.7.d.c.G.c.N.'.,X",
"N.7.N.7.7.7.[ J s s s 0 s s s 0 | S | | s s # s J s s s s 0 5 s s # s s 9 s s J s 0 0 0 s | s J J s s s J 0 s S / 7.7.c.7.N.i.i.",
"b N 5 b b ; z b s ; 0 s s s J J s S | s N ; 5 S s s ; s s # 5 #   0 ; s 5 s J ; b 0 s s | S J | s s s 0 0 0 ; 0 z ; ; z b z J J ",
"/ +.J 7.W +.7.+.7.J +.[ 7.+.7.7.| d.G.d.G.+.7.| c.+.N.G.G.@X&X X@XK.@XK.K.K.+.c.+.+.F.d.G.d.+.+.F.+.7.*.7.+.+.+.7.G.c.+.k.+.W +.",
"G.+.+.*.7.7.c.[ J W 7.+.+.J W 7.G.^.G.G.^.^.^.^.@XG.G.G.G.G.^.G.^.^.G.'.G.G.G.^.'.^.^.G.F.G.G.F.| +.+.+.+.*.+.| +.+.k.+.k.*.c.G.",
"@XK.@X@XK.@X-X-X@X-X-XK.K.+.G.7.7.N.+.7.7.7.7.c.+.7.7.7.c.7.K.d.G.G.d.j.7.7.G.7.*.d.+.+.+.+.G.+.G.d.G.G.H.OX X X@XOX-X@X@X,X,X'.",
"7.+.7.7.N.7.0 J J J 7.| J J [ s J +.J 7.W J J J J s W N J 7.+.7.| J J J 5 J b / J o.7.+.7.s | J +.| J | | | s o.J J +.k.Q +.W +.",
"W | [ [ i.[ [ [ [ J [ [ J 5 b 5 0 s 5 s s g J S J 7.s s J s 7.J 7.i.s | b 5 g 7.| s s s s 5 s ; s ; J | 7.7.J 7.| J [ c.7.[ [ 7.",
"i.K.N.c.7.W [ 7.i.N.N.K.K.7.[ i.K.K.i.j.j. Xi.j.7.d.7.7.7.d.c.c./ K.N.7.7.7.7.i.j.7.K.d.K.j.i.j.7.7.7.d.G.7.7.i.i.+.[ 7.c.c.N.[ ",
"7.W [ W 7.k.W [ K b J W [ [ W W W N W J W J +.| 7.+.W J [ +.W +.W J W 7.W J W [ +.+.W +.W / W J b W W J B J J +.7.W c.W 7.W J +.",
"c.c.c.7.+.J W / K W [ 7.Q [ W 7.7.7.+.7.7.7.+.W W 7.+.7.i.j.J 7.+.c.c.c.[ 7.7.W 7.| [ +.7.J 7.| 7.7./ J 7.7.J J / W | 7.W [ +.[ ",
"J s b s J 7.J s J J J J / / J J / / W g s s s J s g J s 5 g 5 s b b J / / g 5 s s S g ~ J s 7.s 5 g / J J | J J s s s J J s [ J ",
"[ | J 7.[ 7.J 7./ 7.7.7.W 7.7.7.[ 7.[ 7.7.s g 7./ s s 7./ g s 7./ / J s / g g 7.7.s 7.S 7.s 7.7.7.7.7.7./ 7.7.| / 7.7.| / 7.W J ",
"c.*.7.k.c.K.G.N.c.7.7.[ W / +.[ W / [ J J J [ s 5 s J s J | J +.J 7.W 5 ; b 5 s J s | J J | | J J J +.7.W 7.7.k.7.G.i.G.c.c.c.G.",
"c.k.G.c.c.k.+.c.c.W W +.c.G.N.).N.'.N.).c.'.K.c.7.j.K.K.K.-X-X'.@X@X-X'.K.K.G.7.N.K.K.@XG.K.K.N.7.k.c.k.7.+.l.+.c.+.c.+.c.k.b.c.",
"K.j.N.K.N.j.i.i.N.K.K.K.N.7.c.[ [ c.Q Q c.c.c.c.7.J 7.G.j.d.7.7.c.c.c.N.i.[ / [ i.7.7.7.[ 7.c.[ c.7.c.c.N.K.N.i.K.c.N.j.i.N.'.'.",
"N.i.i.i.N.K.i.N.i.7.N.N.K.7.[ [ [ K K b z J W 0 z z N ; ; J J N N J J ; b 5 b b b b b 5 b ; J [ [ 7.i.N.i.j.i.N.j.N.i.K.N.N.c.N.",
"7.7.7.J N J s 0 0 0 s s J s J | J J ; N N s | s S S s S s | +.J J | | J +.0 N J J J W 0 z N N J S S S s | 0 s 0 0 J W J J | +.+.",
"W J N W J +.| J J 0 0 s | 0 J J J 7.+.7.7.7.7.S 7.S J J N z J z J | s s J J J | +.7.7.J 7.J +.J J s J ~ | ; N J W | +.J s J W J ",
"^.G.b.G.G.H.^.K.G.H.@Xd.G.+.7.'.G.c.G.G.+.F.@XG.+.G.@XG.G.K.'.7.| K. XG.^.^.F.F.G.G.G.G.F.+.G.G.G.G.*.d.^.G.^.'.G.G.'.^.G.G.K.G.",
"c.^.'.@XK.@XK.G.@X^.'.G.@X@XN.N.K.G.c.7.G.d.c.+.7.d.c.+.+.7.+.; N 7.+.+.k.G.+.d.k.c.k.G.G.G.G.G.K.G.K.K.'.&X@XK.G.N.'.'.'.'.K.G.",
"z J b J ! 5 ; z J J z ; 5 5 X b J s J 7.J s s 0 ; 0 ; 9 2 5 5 X o # 5 ; ; 0 N N N 0 J J W +.J 0 b ; X 5 ; ; J s 5 5 b b b J / b ",
"N.N.7.[ [ [ [ [ 7.7.7.7.i.g / / J 7.7.| 7.s s s J J s 0 9 5 2 X o 5 5 b ; J [ / s ; | +.7.7.| J / / 7.,.i.[ i.i.[ [ ` ` i.i.N.i.",
"g g b 5 g a g ` g g J 5 5 i g s s # s s 7.s 7.5 2 # # 2 5 # 5 o 2 5 2 2 # # ; 0 s 7.s 7.; s ; s / s s s J s 7.s / / g g g a g a ",
"g g 5 s a 5 a g a s 5 s 2 s 5 J J 7.s s s s s s g s s 5 5 5 b ; 5 5 s 5 5 s 5 s J s s J s 7.7.s J s 2 # 5 9 s s s 5 a 5 a 5 / g ",
"[ i.[ W [ W J J J J W 7.c.7.[ W 7.7.+.+.7.+.J J J 7.+.7.W W W / s ; J J W J 7.W J J N J +.W J W 7.| 7.+.7.+.7.7.7./ J +.7.W [ J ",
"7.N.7.+.7.7.7.7.c.c.7.7.7.7.7.k.k.7.| 7.7.c.c.7.d.d.G.N.K.i.c.K.7.7.c.G.c.7.c.c.7.c.c.7.7.7.7.7.*.*.G.*.*.+.F.*.7.c.7.G.7.c.7.d.",
"J B o.N B k.B n +.B o.B B N n N   ;     e 0 0 o.o.  J W +.| +.*.+.7.+.c.[ W J W J J N ; ;     ; z z ; J J W W J W J z J J W W W ",
"n N B N B +.k.o.B B +.B B B n n N +.| o.o.e   0 0 N | +.+.N +.N J J J W W J W [ W W s N J [ +.J W B b N b W J W W [ W [ [ / W / ",
"B B B B B B B B B B W +.B +.N B J +.+.J | s ; J z b z N / W W B W J J J J N W J J N z ; J | J 0 N N N N B k.+.o.o.J B B B B B N ",
"^.^.c.^.^.,X^.^.G.^.G.'.^.^.^.K.G.K.K.K.d.d.7.+.k.7.W [ W N b +.+.| | N 7.+.Q Q W 7.c.G.7.G.c.G.K.'.^.^.^.^.G.7.G.G.^.^.^.'.^.^.",
"^.^.,X,X^.^.^.'.'.^.^.^.^.'.@X@XG.G.^.^.'. XG.^.'.^.^.'.'.^.^.^.F.G.G.G.^.^.^.b.c.^.b.'.^.G.G.^.G.@X@X@X'.@X^.G.G.G.^.^.^.^.^.@X",
"k.o.k.k.B +.W +.k.+.k.k.7.F.c.G.*.F.+.G.+.+.G.G.G.G.c.c.W k.F.7.k.G.k.k.k.k.c.k.^.c.c.b.c.c.+.k.c.G.c.+.k.+.7.+.F.+.B k.+.k.B k.",
"+.N W J J J +.J +.W W / J J 5 J J J J S J s J S / 7.[ | 7.W 7.d.7.7.+.7.J 7.W J 7.| J J J J J b | S s J / J / J J | [ W J W J | ",
"[ 7.+.7.+.+.J | 7./ / J 5 J J J b / | J s s s 7./ / 7.J s J J | N W [ +.| / / / J J | s s s J / J s s | / 5 s J / W / b / 7.7.+.",
"j.i.7.+.7.7.J | W | 7.J N.7.7.7.+.+.| J 7.7.G.i.j.d.d.i.7.7.7.i.7.+.*.| +.K.j.7.K.K.K.i.7.+.[ W 7.7.J 7.N.[ i.i.[ / [ / +.7.c.7.",
"J W [ N J N J J J J J N / J J W J J 7.J | +.W J J N J J N 0 J 5 N J J N ; J 5 g J J / J W J / / J W J J / b / 5 J b / b W J J W ",
"5 s s 5 2 5 # 2 s 9 0 ; ; 2 2 5 # 2 5 2 2 # 5 J s ; 2 2 5 s / ` 7.7.~ g 5 2 2 5 s s a 5 5 2 2 +   X 2 2 2 2 2 2 2 2 2 # 5 9 a g ",
"/ g / J s s s ; 2 5 0 J 5 5 2 a 5 s g 7./ 7.~ / s s s 5 s s g 5 5 5 2 s a a g a # 5 ` g 7.g g / s 5 9 9 2 5 s s a 2 5 9 g 5 a g ",
"/ b [ J J J J W / J N J b J 5 g s s 2 s 5 g / / g / a X 2 + 2 2 2 2 5 2 5 # 2 s g 7.7.g J s 0 ; s S S S 9 s ~ 1.g g ~ 7.7.S ` 7.",
"7.c.7.K.d.j.| 7.7.7.7.7.J [ / ! 7.7./ ,.g / J J / s ! 5 5 2 5 5 5 2 2 2 2 # 5 s b 5 ! g J J 7.| 1.~ ~ ~ ,.1.1.1.i.7.S 7.7.j.j.,.",
"7.7.s g 7.g s 0 N s J s s # # # b s z J J | [ J b z J z z ; o ; s # ; ;   ; N b B z W W [ J J ; J 0 ; # ; s J J J 5 5 J s / / b ",
"i.K.%Xj.7.K.K.-X&X*X-XK.i.j.N.i.K.G.d.K.G.c.c.c.c.7.W c.W c.[ c.| J +.| +.c.c.7.7.c.c.7.c.c.K.7.K.i.7.G.i.K.K.K.*X%X%X XN.K.%XK.",
"7.G.G.d.c.G.c.G.K.d.K.G.K.K.i.7.j.7.7.j.N.c.c.K.N.G.c.'.'.c.c.'.d.G. XG.^.G.^.k.G.G.d.F.G.G.G.K.G.*.+.+.K. XK.@XN.d.K.G.K.^.N.'.",
"B N o.o.N J N N W N +.+.+.W z J J 5 W 7.c.c.W J W [ J W c.c.W [ 7.N J 0 7.J W W J +.W N +.k.W N o.| | N N +.+.N J o.o.N B N o.B ",
"+./ 7.7.+.[ J J N z z z J W b a W s 5 2 5 b / b J J 5 J W / / [ 7.7.W J 7.J 5 J J J 5 J J N ; J 0 J J W W ; N J ; N J z J 7.+.7.",
"K.K.c.c.c.7.7.k.c.7.7.c.7.c.i.[ [ / g 5 5 5 b ; b 5 5 5 J J b [ W | J J W b 5 ; b W J J ; ; J [ +.7.+.7.7.7.7.7.7.c.7.c.G.i.G.c.",
"c.G.'.'.'.c.7.c.7.c.7.7.c.c.N.[ j.7.c.7.7.c.c.c.c.Q 7.c.c.N.c.c.7.k.c.k.7.c.7.7.7.7.c.7.7.W c.N.N.).7.c.c.'.c.c.K.G.c.c.c.N.K.'.",
"N.c.c.c.c.c.c.+.7.7./ W 7.7.c.[ d.i.G.N.'.c.N.'.'.,X-Xc.b.'.'.'.,X'.^.'.^.G.G.'.-XK.K.K.c.'.'.c.'.c.k.c.W l.7.c.c.c.c.K.c.c.c.c."
};
