/* XPM */
static char *_cb5c27a60584081e68b9f1c55995d39QJ3k0rYXD2P2VB0H[] = {
/* columns rows colors chars-per-pixel */
"64 64 233 2 ",
"   c #080702",
".  c #121307",
"X  c #261C00",
"o  c #2F2B0D",
"O  c #192B32",
"+  c #2B2B2C",
"@  c #2F3435",
"#  c #121F27",
"$  c #562629",
"%  c #7D2C2B",
"&  c #6F6716",
"*  c #504F2D",
"=  c #6F6B2E",
"-  c #17007E",
";  c #63004F",
":  c #403E41",
">  c #600263",
",  c #430C5F",
"<  c #3E505B",
"1  c #54534C",
"2  c #47555A",
"3  c #545753",
"4  c #745254",
"5  c #676559",
"6  c #6E6D48",
"7  c #485B67",
"8  c #505D65",
"9  c #4D616D",
"0  c #5D6465",
"q  c #54636A",
"w  c #596A75",
"e  c #5A707D",
"r  c #696A66",
"t  c #676A66",
"y  c #6B7469",
"u  c #71726C",
"i  c #6B757B",
"p  c #6B7679",
"a  c #747571",
"s  c #7C7B75",
"d  c #767A76",
"f  c #706C6B",
"g  c #BA0104",
"h  c #B81719",
"j  c #AE1613",
"k  c #AC221C",
"l  c #8E0C33",
"z  c #B4152C",
"x  c #902B2E",
"c  c #AC3133",
"v  c #911A1E",
"b  c #DB0E0D",
"n  c #E50B0A",
"m  c #F10706",
"M  c #C91E27",
"N  c #877B2E",
"B  c #8D2949",
"V  c #974649",
"C  c #92576D",
"Z  c #A85F7D",
"A  c #847D78",
"S  c #907377",
"D  c #8E6D6B",
"F  c #AC646F",
"G  c #DA7D6D",
"H  c #D76759",
"J  c #7C8779",
"K  c #9E933D",
"L  c #A69637",
"P  c #868578",
"I  c #958878",
"U  c #B5AD6A",
"Y  c #BAAC49",
"T  c #C68275",
"R  c #E3CC4D",
"E  c #DECC5D",
"W  c #160086",
"Q  c #390087",
"!  c #5D7582",
"~  c #647984",
"^  c #697B86",
"/  c #757987",
"(  c #77748F",
")  c #857996",
"_  c #90798C",
"`  c #CB7A81",
"'  c #6C818C",
"]  c #7C868A",
"[  c #77858A",
"{  c #6D8493",
"}  c #728693",
"|  c #738994",
" . c #7B8C94",
".. c #758C9A",
"X. c #7B8E9B",
"o. c #7C8697",
"O. c #7D939D",
"+. c #77929C",
"@. c #7C95A3",
"#. c #7C97A5",
"$. c #828C8D",
"%. c #878989",
"&. c #978987",
"*. c #88948D",
"=. c #99948A",
"-. c #818D93",
";. c #888999",
":. c #849295",
">. c #82939C",
",. c #8A9399",
"<. c #989795",
"1. c #938A96",
"2. c #A38789",
"3. c #A8998A",
"4. c #A59E93",
"5. c #A89896",
"6. c #AD9099",
"7. c #9CA49A",
"8. c #B6A38D",
"9. c #A8A398",
"0. c #BAAD9C",
"q. c #B6AB9C",
"w. c #878CA2",
"e. c #8193A2",
"r. c #889BA8",
"t. c #988DAB",
"y. c #B78FA6",
"u. c #A89AA8",
"i. c #B998A7",
"p. c #AA96B6",
"a. c #89A1AC",
"s. c #98A3AA",
"d. c #96ACB7",
"f. c #9BB2BD",
"g. c #8FA5B2",
"h. c #A8A9A8",
"j. c #B2ADA7",
"k. c #BCB3A3",
"l. c #B8B4AB",
"z. c #A8B2B6",
"x. c #BABAB9",
"c. c #A7AAAE",
"v. c #C7B59F",
"b. c #C09CAC",
"n. c #C395B9",
"m. c #C3B6A5",
"M. c #C6BAAB",
"N. c #CBBBAC",
"B. c #C9B6A2",
"V. c #D2BCAB",
"C. c #D3B6B8",
"Z. c #CAB7B5",
"A. c #FEB5A6",
"S. c #E1998B",
"D. c #BBC7B5",
"F. c #CEC0AD",
"G. c #D8C5AD",
"H. c #CDC2B3",
"J. c #D2C4B3",
"K. c #DCCBB5",
"L. c #DDCDBB",
"P. c #D7C7B8",
"I. c #DFD0BD",
"U. c #E4CCAE",
"Y. c #E4C8AB",
"T. c #E5CEB2",
"R. c #E9CEB3",
"E. c #E2CEBA",
"W. c #E8CFBB",
"Q. c #F6CAB4",
"!. c #E6D1B5",
"~. c #EAD1B5",
"^. c #E5D1BB",
"/. c #EBD4BA",
"(. c #EDD8BD",
"). c #F1D6BC",
"_. c #F1D9BD",
"`. c #F6C5AC",
"'. c #9BB5C3",
"]. c #A4BBC7",
"[. c #BDBFC4",
"{. c #BDA9C5",
"}. c #C5ADCB",
"|. c #D6BADB",
" X c #D4B1CD",
".X c #E3B6DA",
"XX c #DABBE5",
"oX c #E9BAE7",
"OX c #F7BFF3",
"+X c #AAC1CD",
"@X c #BBC2C7",
"#X c #ADC4D1",
"$X c #B2CBD9",
"%X c #BBD1DD",
"&X c #BFD1D1",
"*X c #BDD4E2",
"=X c #C7C9C9",
"-X c #D4CCC2",
";X c #DCD1C2",
":X c #DAD3CC",
">X c #C5CDD1",
",X c #CAD7DB",
"<X c #D9D7D7",
"1X c #D0CFD4",
"2X c #E9CDC4",
"3X c #E3D3C1",
"4X c #EBD4C4",
"5X c #E8D8C7",
"6X c #F1D6C4",
"7X c #E3DDD7",
"8X c #E9C7CD",
"9X c #E9E2D9",
"0X c #C4DBE5",
"qX c #C4DDEA",
"wX c #C0D7E5",
"eX c #D8D0E6",
"rX c #ECC5E9",
"tX c #F4C6ED",
"yX c #F3C5F9",
"uX c #FCC1FB",
"iX c #F6C5F4",
"pX c #E6C3F2",
"aX c #C6E0EC",
"sX c #DAE7EB",
"dX c #E8E8E8",
"fX c #FCF4EB",
"gX c #FAF6EE",
"hX c #FEFBF4",
"jX c #F4F6F9",
"kX c #F5FBFE",
"lX c #FCFCFC",
"zX c #F5F4F4",
"xX c #EEEFEF",
/* pixels */
"/./././././././.4X/././././.(././././.(./.(.)./.~.~._._.6X6XW.W.R.^././.(.6X/././././././.(././.(./././././.(.(./././././././.!.",
"~./././.~././.(./.^./.~././.~./.~.~.!.~.~.~.R.~.~.~.Q.Q.oX X}.}.C.2X~.W.~.~.!./.R.R.~.!././.~.~./././././.~././././.)././.~././.",
"R.U.R.!.R.R.R.R.!.!.U.R.T.R.R.R.U.U.U.U.U.U.U.R.Q.Q.A.` C , W W , Z S.Y.`.~.R.U.R.U.U.R.U.U.U.U.U.R.R.U.U.U.R.U.R.U.R.U.R.T.!.U.",
"R.~.~.~.R.R.R.~.~.~.~.R.W.R.R.R.~.~.U.R.~.~.R.`.`.S.c v B > Q Q ; l v G A.`.R.R.^.^.G.P.P.G.U.~.~.R.R.R.~.R.R.~.~.~.~.R.~.~.~.~.",
"~./.~.~.~.!.R.^.W.R./.~.~.~.4X/./.~./.W.R.~.~.Q.H j b b M z l l z h h h j T Q./.Z.<.%.*.&.f G.~././././.~./.~.!.~.R.~.R.~.~./.~.",
"~.~.T.U.R.~.~.~.~.W./.R./.W./.~.R.R.W.L.3X^.6XT j n m m b b z z k M h h k v Q.4.a -.,./ p.6.4X~././.^.!.^.!.R.~./.~.R.R.T.R.~.~.",
"~.~./.~.!.!.R.R.E.R.R.R.R.R.~.8.5 _ 2.u.1.A 2.V h b m n g j x c C F B x x % I [ >.w.;.{.8X2.2XT.R.!.R.R.R.!.~.~.U.R.R.~.~.~.~.~.",
"~.~.~.R.~.~.~.~././././././.W.B.6.rXrX}.1.;.%.C c h h k v V F _ 1.:.S D 4 $ _ >.@.;.t.pXoXy.4X/./././././.~.~./.~.~.R.~.~.~.~.~.",
"!.^.!.~./././.(././././.6X/.6X4XC.6.tXiX|.) w.w._ 4 $ D &.1.-.~ o.@.-.%.@ + y >.e.( oXyX.Xy.6X/.(.(.(.(.(.!./.~././././.~.!.~./.",
"(.(.(./.(._.(./././.).4X/.^./.(.6Xb.OXOXOXXX( @.;.8 # O | @.O.e e ..( 7 q q 7 @.>./ yXOXOXb.2X/.(.(.I.(.(.(.(.(.(._.(.(.(.(.(.(.",
"/./.~.!./.~./.~./.~./.R.~.^.^.^.4X_ uXOXOXyXp.w.;.O 9 ' 7 @.#.' ! ' ..' O.O.+.' w.) yXyXtXC.4X~.!.!.!.!.!.!.~././.~.~.~.~.^./.~.",
"/././././././.~.)././././.~.!./.3XS OXOXOXOXpXo.} < O.@...^ { J | | ~ @.#.O.O.O.w.( oX XtX X2XW.^.!./.^.!.(./.~.~././.(./././.~.",
"!.^.!.!.!.~.!.~.T.R.~.~.~.~.!./.4XS oXOXoX X|.w.~ | @.>.O.a.f.].f.+X+.:.O.O.O.#.#.w.t.p.tX X2X)./.!././.~.~.T.~.~.~.~.!.R./.~.~.",
"!././.(.(._.(./.~.(.~./.(.(./.^.4XS .XOXoX) t.w.e.O.:.P P J ,XaXqX&X6 = J J +.+.#.#.( ;.8Xb.6X).!././.(./.(.~.(./.)././././././.",
"(./.(.(._._././.(.(./.(.(./.(./.2XD  XyXoX( e.@.#. .6 & K = h.0XaXD.& R R & J +.#.w.( p. X6.W.~.~.(./.(./.(././.(.(.(.(.(././.4X",
"(./.(.^.~.(.~.~.~.!.T.!.!.!.!.!.)._ n.OX) ) e.#.#.[ K E R K 7.aX0XD.L R R L J [ @.@.w.p.S ;XW.R.~.~.U.!.!.U.!.!.!.~.~././././.(.",
"/.~./.~.~.~.R.R.U.T.U.U.T.T.U.T.!.V.y.pXXXp.@.@.#.J U L L U *.aX0X@X= o N U d @.@.@.e.i j.B.K.U.U.U.U.!.U.U.U.U.U.!.!.!.~._.~.~.",
"U.U.U.U.U.T.U.T.U.Y.U.U.U.U.R.U.U.K.y.rX|.( e.@.O.] * X & * 7.,X,Xz..     6 [ @.@.@.@.:.r 5 E.R.U.!.U.U.U.U.U.U.U.U.U.U.U.U.U.U.",
"~.!.!.~.R.R.R.R.R.R.R.~.~.~.~.~.~.3XC.i.;.w.@.#.O.| @ .   . [ *.] t a . o t >.@.@.@.@.>.$.l.3XW.~.!.~.~.!.!.!.!.(.!.!.!.!.!.~.!.",
"~.!.!.!.~.~.~.~.R.!.~.R.~.!.T.~././.5.5 ( e.#.@.#.#.O...8 1 ,X%.u.@ x.c.~ +.@.@.#.#.@.O.q u M./.!.!.!.!.!.!.!.!.!.!.(.U.!.(.!.(.",
").)._._.(._._._.)._._./.~.!.~.~.!.(.H.5 [ O.@.#.#.#.@.+.' s.>X+   1 <X0  ...@.@.#.#.#.#.] 5 k.W.(.~.(.~._._._._._._._._._._.(.(.",
"~.R./.R.~.R.T.R.R.T.~.R.R.R.~.T.!.^.J.5 >.#.+.#.@.#...' [ x.lXxXl.dXdX[. .e.@.@.#.#.#.o.t A E.U.!.!.U.!.!.!.~.U.!.U.!.~.!.!.!.!.",
"R.R.R.R./.R.R.R.R.R.R.R.E.U.T.Y.U.L.q.d [ @.#.@.@.@.O...s.}.xXzX=X}.z.>X,X^ @.@.@.@.@.i 5 U R.U.U.U.U.U.U.U.~.~.!.U.~.~.~.!.!.~.",
"~./././.R.R.R.~.R.).~.)./.~.~.~././.D 9.] ' @.@.@.@.@.O.z.kX1X=XhX1Xx.kXf.O.@.@.@.e.] u 5X/.~.~.~.~.~._._.~.~.~.(.~.~.~.~.~._.~.",
"R.R.R.~.~.!.R.R.E.T.E.R.W.R.W.R.R.R.E.k.* i X.@.@.@.@.@.>.[.kXkXkXxXkX,XX.@.@.e.>. .u ;X!.!.U.U.U.R.R.U.R.U.R.~.!.!.~.~.~.!.!.!.",
"/.~./.R.~.R.R.R.T.R.R.!.~.~.R.^.R.~.!.!.k.4.i >.>.@.@.e.@.X.r.sXzXjX>XX.O.#.e...i *.I.^.^.!.~.~.~.~.R.R.~.!.R.U.~.U.~.~.!.U.~.~.",
"U.Y.E.U.R.R.R.U.R.R.R.R.R.R.R.R.~.R.~.R.E.L.l.u ^ X.@.@.@.@.@...~ | O.#.@.| ~ 2 *.l.L.!.!.!.~.R.U.U.R.R.U.~.U.R.U.U.U.U.R.U.R.U.",
"~.~.R.~.R.~.R.~.R.!.~.R.R.~.R.R.~.~.^.^.P.k.J $.2 9 } ^ +.@.#.@.#.O.#.#.~ e O.>.:.5 %.M.L.!.!.T.~.!.R.~.R.~.~.~.~.~.~.~.!.R.R.!.",
"/.~.R.~././././.~.!.W.~.R.!.R.R.R.E.L.9.f [ O.O.@.@.@.#.#.@.@.@.@.@.#.@.@.@.@.e.@.>.:.u P F.^.!.R.~.~.~.R.~.~.~.~.~././.~././.~.",
"~.~.)./.~.~.R.R.~.~.R.R.~./.4X/.^.N.P $.>.@.#.#.@.#.@.#.+.@.#.@.@.#.#.#.#.@.X.@.@.@.@.O.] a k.^.~.~.~.!.~.!.!.~.~.!.~.~.~.~././.",
"/.).~.R./.~.R.)././.).~././.~.~.L.f :.O.@.@.@.#.@...@.@.#.@.@.@.@.@.#.@.@...w @.#.@.#.#.O.:.s M./.~.~.~././.~./././.~./.)./.(.(.",
"/.~.~./.).~.).~./.R.R.).).R.R.W.m.y >.@.@.@.@.@.@.{ #.#.@.].'.@.@.@...r.X...7 @.O.#.@.#.#.>.%.=.!.~.~./.Q././.~.).~.~.).~.~.~./.",
"~.~.!.!.U.U.U.U.U.U.T.T.T.U.!.!.N.a e.@.@.@.@...' w @.@.#.qXqX#...#.$X*X$X..! +.' +.@.@.@.>.] &.E.!.U.U.T.T.U.U.U.U.R.U.R.R.!.!.",
"!.U.!.!.R.!.~.R.U.U.U.U.!.U.U.!.3X<.:.@.@.e.X.2 @Xi e.O.#XqXqXqX$X*XaXaX*X'.@.sXz.i @.O.@.>.%.j.K.U.U.!.!.U.U.T.!.!.!.!.U.!.R.R.",
"/./.~././././.~.!.(.(./.~.~././.^.9./ @.e.X./ / s.8 @.@.*XaXqXaXaXaXaXaXqXr.o.e.z.] :.e.@.>.1 ^.(.~.~././.~.(./.~.~./././././.^.",
"/./.(./.(.(././.(.(.(./.(.(.~././.I.P :. .0 sXlXsX~ @.#.aXaXqXqX*XaX*XaXqX]. .s.kXkXz.,.-.] 9.5X/.~././._./._.)./.(.(.(.(./././.",
"U.!.R.U.U.U.U.U.U.!.U.U.U.U.Y.Y.T.E.M.5 z.kXlXdX7.[ @.f.qXqXqXqXqXqXqXqXqX$Xo.,.kXlXkXkXx.5 q.T.K.U.Y.U.Y.U.U.R.T.U.U.Y.R.R.R.T.",
"/./.~.R.~.R.R.~.~.~.~.~.~.R.R.R.R.^.^.k.gXlXlXzXw >.@.].qXaXqXqXqXqXqXqXqX%X>.i dXlXlXhX9X&.!.E.~.!.~.~.~.~.~.~.R.R.Q.R.~.~.).R.",
"R.R.R.U.R.U.U.R.R.R.T.U.U.U.R.U.U.Y.R.V.Z.7XhXjXs.>...*XqXqXqXqXqXqX*XaX0X*XX.w @XlXhX9XH.L.T.T.T.R.U.U.U.~.~.U.R.U.R.R.U.R.U.U.",
"U.U.U.U.U.U.U.U.U.U.R.U.Y.U.U.U.~.~.R.!.L.M.-X7.^ @.e.qXqXqXqXaXqXqXqXqX0X%X| / *.zXgX3.^.!.R.R.U.U.U.U.U.Y.U.R.U.U.U.Y.R.U.U.R.",
"R.~.~.!.~.!.R.U.T.T.R.~.~.~.~.~.~.~.!.!.!.I.;XJ >.#.a.aXaXqXaXaXqXqXqXqXaX$X{  .*.q.I F.E.R.R.R.~.!.~.!.~.~.~.~.~.R.R.~.R.R.~.R.",
"~.~.~.!.R.~.~./.~.!.~.~.~.~.!.~.~.T.!.~././.k.3 >.@.f.*X*XaX*XqXqXqXqXqXqX$X| X.9.5X^.!./.~.^.^.^./.!.!.~.^.~.~.~.~.~.~.~.~.~.~.",
"R.T.E.U.!.!.R.K.!.!.!.K.!.U.K.!.Y.U.U.G.K.!.9.p O.@.'.qXaXqXqXaXqXqXaXqXqX$X+.:.=.I.E.K.K.M.q.J.K.U.U.R.T.!.!.R.R.R.T.R.R.E.E.~.",
"T.T.T.K.!.!.!.U.K.!.!.!.U.!.U.K.!.!.!.T.!.K.7.*.@.#.].qXqXqXqXqXqXqXqXqXqX$X+.>.d I.E.B.H.hXfXm.v.E.K.T.T.R.!.!.R.~.E.R.R.W.R.R.",
"U.!.!.!.T.!.E.!.K.!.!.!.K.!.U.K.U.T.!.!.!.I.y :.@.@.].qXqXqXqXqXqXqXqXqXqX#X+.O.3 =X<.j.hXhXhXL.8.U.T.T.!.!.!.!.!.!.!.!.T.!.T.K.",
"!./.^.(.(.(.(.^./.(./.(.(.(.(.(././././.~.^.u >.@.@.'.qX*XqXqXqXqXqXqXqXaXg.+.+.0 d d <.lXhXH.F.6 /.^./.(.(./.!.!./.^.(.(.^.(./.",
"(.(.(.(.(./././.(./.(./.(.(.(.(././././.(.5Xu >.@.#.'.qXaXqXqXqXqXqXqXqXaX{ +.+.~ >.] <XlX3Xm.5X5X(.6X(.(.(.(./././.^.(.(.(.(.(.",
"/.!.^.!.!.!.!.!.!.!./.!.~.!./.(.!.!.!./.~.3Xs ,.@.@.^ qXqXaXqXqXqXqXqXqXqXa.#.{ e >.>.*.dX4.^.~.~.~.^.^.!.!.!.^.!.!.!.!.!.!.!.!.",
"!.U.!.!.T.T.~.T.T.~.!.T.T.T.U.T.T.T.T.T.T.!.j. .>.#.+.].qXqXqXqXqXqXqX0X*XX.@.! w e.>.y k.0.!.U.!.~.U.!.~.U.U.R.R.R.R.~.U.!.U.!.",
"!.!.!.~.!.~.T.R.!.R.~.Y.Y.~.~.U.!.!.R.R.!.E.k.0 :.O.#.#.0XqXqXqX*XaXqXqXa.@.@.@.< X.>.J D K.R.R.T.U.U.R.~.U.U.~.R.R.R.R.~.~.~.~.",
"~.~.~.~.~.~.T.!.~.R.~.~.~.~.~.~.~.U.~.~.!.^.;X%.e.@.#.+.r.%XaXaXaXaX*Xa.#.#.@.@.^ w ] 1 I.~.~.R.R.!.R.~.~.~.~.~.R.R.R.R.~.~.~.~.",
"R.!.!.U.U.T.U.T.U.T.T.U.R.U.R.R.~.U.~.U.!.^.M.t >.#.#.#.#.#.+X#X].'...@.#.#.@.@.+.@ a I.!.!.R.R.R.R.R.!.~.U.~.U.U.R.R.U.R.!.U.T.",
"U.U.U.U.Y.T.U.U.U.U.U.Y.U.U.Y.U.Y.U.U.Y.Y.E.9.0 e.@.#.#.#.O.O. .-.] X.+.@.@.@.#.@.^ P E.!.Y.Y.Y.G.Y.Y.Y.U.Y.U.Y.U.U.U.U.U.U.U.U.",
"U.R.~.U.R.Y.U.Y.U.Y.U.T.U.U.Y.R.Y.R.U.R.~.I.=. .@.@.#.@.#.p + 1 h.r $.:.e.@.@.@.@. .A L.!.T.T.R.U.U.U.U.U.U.U.U.U.U.U.U.R.U.U.R.",
"~.R.~.U.~.T.~.T.R.R.R.R.U.R.U.R.R.U.U.Y.Y.H.0 e.@.@.@.#.:.r l.E.K.L.l.s $.>.#.#.@.O.a 4.E.U.U.U.R.R.U.U.U.U.U.~.U.U.~.U.~.~.R.!.",
"~.~.~./.~.~.~.~.~.~.~.R.R.R.R.U.R.~.T.~.E.9.$.>.>.>.e.] y L.T.U.U.U.K.L.%. .>.@.O.>.>.s ^.R.!.!.~.~.U.!.~.~.~.~._.~.U.~.~.~.~.~.",
"~.~.T.T.R.U.U.U.U.U.U.U.U.U.Y.Y.U.U.U.W.M.&.h.i ,.-.$.a -XK.U.K.K.U.K.K.L.a [ ] s.X.,.%.0.R.U.U.U.U.U.Y.U.U.R.R.U.U.U.U.R.R.R.U.",
"~.~._./.~./._.(.)._._./.).~.~././././.3X4.xXjXxXlXlXlXl.P.J.^./.!.U.~.v.H.9.xXkXkXjXjXs.P 3X/.~.(.~.~.~.~./.~.(._._.~.(._.~.~._.",
"~.~./.!./././.!./.~.(././././.W.~./.~.F.:XhXlXjX=X=XdXx.lXP.3X(./.^.G.k.hXx.H.kX=XlXlXlX7XP.^./.~.!.!.!././././.~._._.(.(./._.~.",
"!.~.!.!.U.T.T.T.R.K.!.!.R.R.T.T.T.T.~.B.gXlXlXhXhX1XlXgXgXZ.L.R.!.^.F.F.9X<XlX<XhXlXlXhX5XG.!.T.!.!.!.U.!.!.T.T.U.U.U.U.U.U.!.!.",
"!.R.~.~.~.R.U.R.T.T.T.R.T.R.R.T.R.R.U.8.M.7X7XfXhXk.fX4.5XM.!.!./.^.R.v.I P.hX:XfXfXP.&.P.T.Y.R.U.!.T.!.R.T.T.T.U.T.U.R.!.!.~.~.",
"/./.~.~./.~.~.~.~.!.R.~.R.~.R.R.R.R.U.T.L.L.L.V.M.B.3.J.E.T.R.R.R.!.!.E.L.K.B.J.N.N.3XT.U.U.R.R.!.~.~.~.~.~.~.~.!.~.~.~.~./.~.~.",
"/./.(.(./.~.~.~.~.~.~.~.Q.~.~.~./.~.~.R.W.~.~.~./.~.^./.~./.~./.~.^.~.!.^.~.!././.^.E./.R.R././././.~.~./././.~././.~.~.~.(.(./.",
"/./.~.~.~.~./.~.!.~.R.W.~.W.).W./.~././.)./.~.).4X4X6X/./._.6X4X/.(.(.(././.)././.(./.~././././././.~.~.R.!.W./.~.~.~././.~./.~."
};
