/* XPM */
static char *wall21680976566[] = {
/* columns rows colors chars-per-pixel */
"64 64 50 1 ",
"  c #5C452F",
". c #5F4630",
"X c #654C35",
"o c #684E37",
"O c #674E38",
"+ c #694F38",
"@ c #67513C",
"# c #6C543D",
"$ c #71573E",
"% c #72593E",
"& c #6D5642",
"* c #6E5942",
"= c #705741",
"- c #745B44",
"; c #795E45",
": c #755E49",
"> c #785F49",
", c #7B6146",
"< c #766049",
"1 c #7C644B",
"2 c #7E694E",
"3 c #7E6650",
"4 c #7E6851",
"5 c #816347",
"6 c #81664C",
"7 c #83694E",
"8 c #896B4F",
"9 c #816751",
"0 c #846B53",
"q c #896E53",
"w c #866E58",
"e c #896F58",
"r c #877257",
"t c #8B7156",
"y c #867059",
"u c #8C735A",
"i c #8F795C",
"p c #907356",
"a c #91765B",
"s c #93795D",
"d c #997B5F",
"f c #8F7660",
"g c #8E7860",
"h c #917660",
"j c #947B62",
"k c #997E63",
"l c #997F68",
"z c #968166",
"x c #9A8165",
"c c #9C836A",
/* pixels */
"e;>5;10>$$>0q055q5;$5t<:<4-*::@&:&:@34449,hq6090::,=<*=91sttxxp7",
"e;>;616-#;;1;55p68$%,t4-*<:&&@@@::&:44w40,ju00>1;#-*-,3e7a8usxpr",
"8;=5-6;:#1o-p07;7;#%65,<&:1::&&&:<:<ww4w90kq09;-41<-@:9#0tttixrr",
"5;;;61;=--o$$;7567X$,5,<::--&&@&@:4:34w496at76e><0<@&@+--qtupttr",
"0;;,%6;$=-+=977-e-X$6013<31-&*&:&&&&3w930yju807$2<>:+3>9:r8jxsri",
"p556,6:,=-&-#;=p7%o58e14<4w4::::&:>:>w3><,ltur1<>113*yu1107ups77",
"0650;6,:$=++=->87:X-6019444w::&&&::9w9334rui811-=+>=,i3:1t0jaa1,",
"q67p8,,:=o&=$=-=-$+-8t914ww44::&:&&w9w:>1qs8722=#>--1y:O<00tlt-:",
"z,,t6%<-+o<<&1*#-$#;qa99ww904:*:&:4*0333:0hetr7,<-1:29@4706sju;-",
"8278,-,%@#:##-@-$#=60q90ef0f4<*:&:**e933>9aar7a21,:1,t:gruryxt16",
"z57,6,,$=@,2$#-#=o;8qd99yj0yw3<**:4*0333:90q8r8<9112-9,0tuuist16",
"888t,,<,=#<$#o<=>=;,p099yefeu><:::4<333<46p8,r02<1,1-t:qusiicae6",
"7tz716101$X<#.-:1-;et799fej0u91<::<4:4032787516,2-411u9902usxtut",
"8zz8u7t71O-<:==7$%%qsq999yfwh94<<&:4444319t,162<-*21,y9,2utyatu0",
"z87zu0u01X01:<$1-$50jp909el9h444<*:44::>42-1,7,2<<:<;u31=qtit0a9",
"5x8xstu22#+#7,@1-,7qp00y3wlwy400<:444:43100u667,:##11y--1qruuqst",
"5xzp8z82,1r;$-$11570q80q90heuee0<:uq-4:172tt113:&==:1e-@qejiu6aq",
",zx8x8z,17900%@9016qq0091ejeaey94<wu:w390,tap71,O:::=91&qeuii6tt",
"58x8zz82$0$#0,Xtq6q798009ykuee11<31&143w41upt81:&::-->-=qquuu7dt",
"5z8z7z77$69e-,-1>50q900e0yeluee0<43#4<444yast1,:-:=>=-;#i30ua8jx",
",i88z228,:6-0,9=6,78550e0uijyijy<4y43*43w3yj881r-:-=1&9$y1juu7dx",
"78i872t,21-@1#q901q6099f4yyjugu4<<0uy:9w4wut762<3*:&==:&79ysaqxs",
"7itzzr7t,-u1#$9,00e7199y4uhxyauy2<12y3y940pu76:=-@:&>-:=@qsyt7as",
"787x,rr7@,1#2 7201691qqe0qejyigu011494w9y0886,#=**,-=3=-&9e0q7kl",
"287s7z,;%#<#9=<u0r1t66qwuyuziiyry<41y<y3w9qt71$1-=::-:>+190q97sk",
",titr87,2r1i#;1u806811wyyuijjriry*w14<y943q17,=,:=:=&=:>+19qy0ss",
"7ttttz77,-$%9159i88769qygujjgjiru2013ww0w1q8821:-1:=>>>#&:,wqtap",
"7ttirs,2$X170:01qu1200uyyyjgiziu44yu49394;ut8261=>==:&:>133,10pt",
"rt7ttt,82@9a::1a19660q0fwujjjirr90jw4ww94:jt70991:-9:>:>-,-17ttt",
"60t0ts7t1o910#u>19tq06ffyfjjjiz1yyuqg4yw3,e705>>61:3&90&41,27qpd",
"680qiz7t2o6$+-:qq7tq71jiyljlftj4010q00wf9:aq7;>>:0-1-19,01,18uap",
"18t0px,t0-y$1+$16187q5ufifjjjyq<qufwfeey917q5,5:>e>>1:9*212,68as",
"7r8r8ip8qX>791=517t8t7ijyijljiq14yy0y4uue105>5;:>1>97:9:$29108pd",
"7t8risx2;7;60=966q0q09qgryjhsj9744:3,1wu0006>59>19391=1-111,e7pd",
"pp7ttpzpq;e6u0>u70qt8ryweujaii1444-114wq9508>061,:>9y20<#90,77pd",
"r78prip,7;;61$=;1tqt8rqq7jjjua290<yiyiyy90q05959:>11,21-1:9;u8pd",
"t88zzptz77061;;55a8tsqq92jzsea>1y<3y0ju010up57e6:111<2:-$<1100pd",
"t882pzptat60;%+,786tstuq0tcjae=9019qugjy10pp677197771:=-1:,0q7ad",
"z77zpzatq61;-%%;878ppuqy6eclei,wr2j0uyii60ad6q06r990q:=#,111qqka",
"z528xptpq1;6q;,,788psay9qyjhei9wr<fqtjcf00dp6t76ifytr:=720,70qst",
"8,8zxxx8975015;;55pptztreujheew9t2uqjcjh90lp8tte1s002-#7$r7287su",
"x57z58z516190>qp87p8ppi7yihjtuiy21qqljji9usd8t061r7t1=@-012,078t",
"8,,8x85,6119>-7qt88putu2ythlujqyq1wfijjjq6q8tte710101$=<11277taa",
"8z58778,0-==$$5085,5tttrqejyss4<91eyjjju9756q8teuu7t:=1:,172t8pt",
"z8,788,59<--$;6,q767ttq0iifyygw314ee0lj9q9p;8aeut0,0&1=927,7prtx",
"8877,57,,-@++$65,777ttt7ujgi0g4<19930ly1yqq6770att10X,11r227i8ts",
"7z7z52,8:& .$,7e77t7tqt0yjug0g430qww9jy99yt776q00q61#7,7%2,7paas",
"2,7z787,*&.X1,q0,,0880yyyzyj1i4>9yf03ii09qtq86t7pu91<71221,r8tta",
"78rr272,%%-O%-,7;687880qyguz40w*4wf912j0,8ap278ta011>1>90290ti7u",
"t,tt,7,,%%@X$<77;,687ttygjzcw4>-*49410t0,ax888t70ty11,19177asu0i",
"8%7t8%%,2,,*;%1u5;8p68srugjl40&:<3q111ur,8iatrtts0971q22149tuaut",
"i%,25%5777r70-9q5558qt0uyggf44&<:*3:29jr17pxptxiir932011911sutsa",
"8%,88,pxt7;>;9;16588pquuyijy9e&3*@@=1yj0r,sssqtstu14212422rpttsa",
"p;28ip87q,7155;5668pattufjy919&&&&:-<4t9r1dilutstu<20<241,6sttat",
"t75t8z87q5=5$%e;%688pquufhy29::::-4=,1u,26spisistz1<14<1017axis8",
"t,7p8p775;7;;>;1,8888qeuyyf901*3*:3:21z,,7xsutttts22-021<97txsat",
"t66pt767;;16;-0;q78r78tquyr00:&<*:::9,l1-1au0ph9ty<31-1,12jassx8",
"q66t6,5616;,#=;-1q88t8tu011qy1**-*-=9,i116qe09uey4<<1-12,7pqsxpq",
"666tq61;;;1$>;>=,qt617utr007f13:**&=11i91>ae50e0i0-@107r16sqskd7",
"6;7p;55;,;;19>:=-%,875tuu713y,3-&:@&<=r1>;ep99w0yq*#,,,-1ea0kkp8",
"t%1t5>5;11>;1$+-,-600u60ry71w1:@*:&&<&0211u7111y91:-,99087tadxat",
"8$855>9;;;;>--&+-=6u709u,gq;e3>&&-*-1-r11;a0:,ruw<*&7-$<r,ppsxt7",
"6;7;5>;>;,5>9>=X#,>786uq3e01w::&&:-&<<2,1;7e9940444*9rr6t28ixc86",
"85q%59;,1;5=9$O-o;1757yq,ie3w*3*&:-**11116eu99r44y342,72r8ttxz86"
};
