/* XPM */
static char *_32e23abe0194d9ee8028c75a96ed1dc6WEDMG4ECXElpJwK[] = {
/* columns rows colors chars-per-pixel */
"64 64 195 2 ",
"   c #010101",
".  c #090504",
"X  c #0C0807",
"o  c #060509",
"O  c #0A060B",
"+  c #07080C",
"@  c #0D0A0A",
"#  c #110603",
"$  c #120905",
"%  c #140E0B",
"&  c #14100C",
"*  c #1C150D",
"=  c #1C180F",
"-  c #0D0D12",
";  c #110E13",
":  c #0E1417",
">  c #131114",
",  c #1A1514",
"<  c #15141B",
"1  c #1A161D",
"2  c #15191D",
"3  c #1A1A1D",
"4  c #1E1A17",
"5  c #20160D",
"6  c #22190F",
"7  c #211712",
"8  c #241C13",
"9  c #281E16",
"0  c #241D1D",
"q  c #2B2216",
"w  c #2E241A",
"e  c #30241B",
"r  c #352A1F",
"t  c #1B1C22",
"y  c #1F232A",
"u  c #1C2125",
"i  c #222226",
"p  c #2F2627",
"a  c #22242B",
"s  c #2D292E",
"d  c #3B2E24",
"f  c #342828",
"g  c #372C26",
"h  c #3B3126",
"j  c #3D3128",
"k  c #343027",
"l  c #232730",
"z  c #262C31",
"x  c #2B2E34",
"c  c #332F33",
"v  c #2B3136",
"b  c #2E343A",
"n  c #273133",
"m  c #313136",
"M  c #33363B",
"N  c #31383E",
"B  c #3B3737",
"V  c #43352B",
"C  c #44382B",
"Z  c #433D3A",
"A  c #483C34",
"S  c #4B4136",
"D  c #5A4C3E",
"F  c #2F3640",
"G  c #2F3841",
"H  c #323B43",
"J  c #3B3D43",
"K  c #303642",
"L  c #374045",
"P  c #3C4047",
"I  c #3D434C",
"U  c #3F4650",
"Y  c #404146",
"T  c #43444B",
"R  c #494649",
"E  c #4C494C",
"W  c #4E4946",
"Q  c #544B43",
"!  c #594D43",
"~  c #514B4C",
"^  c #544540",
"/  c #5E5047",
"(  c #5D554B",
")  c #434752",
"_  c #444A54",
"`  c #4B4D57",
"'  c #464F58",
"]  c #4A4E59",
"[  c #524C50",
"{  c #475059",
"}  c #4B515C",
"|  c #545152",
" . c #5A5652",
".. c #51525D",
"X. c #5B5758",
"o. c #63564E",
"O. c #665A4D",
"+. c #6A5D4F",
"@. c #605446",
"#. c #6A5C53",
"$. c #6E6057",
"%. c #72645B",
"&. c #786A5A",
"*. c #4F5661",
"=. c #525561",
"-. c #545A65",
";. c #585C65",
":. c #7B6D62",
">. c #7D7064",
",. c #817569",
"<. c #8C7C6E",
"1. c #847869",
"2. c #8B7F73",
"3. c #8E8276",
"4. c #93867A",
"5. c #9D8C7D",
"6. c #938376",
"7. c #9A8D84",
"8. c #9E9183",
"9. c #A39383",
"0. c #A89785",
"q. c #AB9B8C",
"w. c #AA9987",
"e. c #AEA596",
"r. c #B4A593",
"t. c #B6A896",
"y. c #BEAE97",
"u. c #BCAC9A",
"i. c #B6AB99",
"p. c #BCAEA1",
"a. c #C0B19E",
"s. c #C4B4A4",
"d. c #CBB8A5",
"f. c #CDBCAA",
"g. c #C8B5A6",
"h. c #D0BFAD",
"j. c #CFC0AD",
"k. c #D6C5B2",
"l. c #D9C6B1",
"z. c #DDCBB4",
"x. c #DECDBA",
"c. c #E5CCAE",
"v. c #E9CCAF",
"b. c #E1C7AC",
"n. c #E5CEB2",
"m. c #E9CFB3",
"M. c #E2CEBA",
"N. c #E6D1B5",
"B. c #EAD1B5",
"V. c #E5D2BA",
"C. c #EAD2B8",
"Z. c #EBD3B9",
"A. c #EBD3BB",
"S. c #E9D2B9",
"D. c #EDD3B8",
"F. c #EDD3BA",
"G. c #E9D4B9",
"H. c #E8D4B9",
"J. c #EAD5B8",
"K. c #EBD6B9",
"L. c #E9D5BA",
"P. c #EAD5BA",
"I. c #EBD6BB",
"U. c #EAD6BB",
"Y. c #E9D6B8",
"T. c #ECD4B8",
"R. c #EDD5B9",
"E. c #ECD4BA",
"W. c #EDD5BB",
"Q. c #ECD7BA",
"!. c #EED6BA",
"~. c #EFD7BB",
"^. c #EED4BA",
"/. c #EBD5BD",
"(. c #EBD7BC",
"). c #E9D5BD",
"_. c #ECD7BC",
"`. c #EED6BC",
"'. c #EFD7BD",
"]. c #EDD7BF",
"[. c #EDD5BD",
"{. c #EBD4BA",
"}. c #EDD8BB",
"|. c #ECD8BD",
" X c #EDD8BD",
".X c #EED9BE",
"XX c #EEDABE",
"oX c #EDD9BD",
"OX c #F0D8BE",
"+X c #F1D9BD",
"@X c #F0D6BD",
"#X c #E5D3C1",
"$X c #E9D5C3",
"%X c #EED9C1",
"&X c #F1DBC0",
/* pixels */
"P.P.P.P.P.).P.P.|.P.T.P. XP.`.T.T.K.+XT.T.T.T.T.T.B.T. XA.%XF.m.m.F.A.D.@X@XA.@XT.T.T.K.}.}.T.+XT.}.T.).P.T.T. X|.). XP.P.C.P.H.",
"C.T.`.T.C.).P.).P.P.A.A.T.C.T.T.B.B.B.Y.C.B.m.B.B.B.B.A.C.C.F.m.m.F.F.m.F.m.m.B.B.v.v.B.B.Y.B.B.P.A.T.T.A.B.T.T.T.T.T.T.T.Y.P.Y.",
"m.m.n.m.m.m.m.m.n.n.n.n.n.v.n.m.c.c.n.m.n.n.c.c.c.c.c.v.v.v.v.c.v.n.n.c.m.v.m.c.v.c.c.c.v.c.c.c.m.m.n.c.n.v.n.c.n.v.B.v.m.v.n.c.",
"m.B.B.B.m.B.m.m.m.B.m.m.m.m.m.m.B.N.n.C.B.m.m.m.B.B.v.B.B.B.B.B.m.m.m.m.B.m.B.B.B.B.v.m.B.v.B.B.m.B.m.m.m.m.B.B.B.B.B.m.B.B.B.B.",
"B.B.B.N.N.B.m.C.M.C./.C.A.T.T.`.C.C.N.N.N.C.B.B.T.B.B.B.m.B.m.B.B.B.B.B.m.B.B.B.A.B.B.B.C.C.C.C.B.A.C.C.C.P.C.B.m.B.m.B.B.B.A.B.",
"N.B.N.c.m.m.C.B.C.C.C.m.A.B.A.C.C.N.C.N.C.A.A.A.B.B.C.B.C.C.B.B.B.B.v.m.T.B.T.T.A.B.C.C.C.C.C.B.`.T./.N.N.N.n.B.C.B.m.v.n.n.B.B.",
"B.T.B.B.m.m.m.n.m.m.m.m.m.B.C.B.n.m.m.m.m.n.n.n.c.m.v.m.m.m.n.c.v.c.m.m.m.m.m.n.v.c.n.m.n.m.m.n.N.m.m.m.C.m.m.B.m.m.m.B.D.B.B.B.",
"B.N.B.B.N.C.C.C.B.A.B.P.C.C.A.B.T.T.T.A.A.C.`. XT.}.T.B.B.B.A.D.T.B.m.m.~.B.^.A.^.^.A.T.B.A.T.P.A.Y.T.P.C.C.C.Y.B.B.B.B.B.B.B.B.",
"N.Y.N.B.P.P.T. XA.T.A.`.%X).`.|.}.H.|.P.|.|. XP.}.).P.P.T.P.T. X~.K.^.T.T.`.P.`. X X X X). XP.P. X X).%X XP.P.Y.P.T.T.P.B.N.C.P.",
" X%XP.). X&X XP.`.`.%X).).C.).).).L.|.|.|. X|.%X X X`.P. X`. X&X+X+X}.}.P.|. X X X X|.|. X).P.P.).).).).P.}.).|.}. X X%X`.|. X X",
"H.P.C.N.P.C.P.C.C.C.C.C.C.N.N.N.H.Y.Y.P.|.Y.H. X). X`.).P.). X X(.(.}.P.).). X X}.T.Y.}.N.).C.).N.N.N.N.N.N.Y.B.P.T.C.C.B.C.P.C.",
"H.P.P.).T.C.C.C.`.T.`.C.).C.N.).N.Y.N.Y.Y.Y.Y.N.N./.V.V.N.).V.N.V.V.).V.V.V.N.N.N.N.Y.N.N./.N.N.P.N.N.P.P.P.P.P.T.C.C.T.A.T.C.C.",
"N.C.C.m.m.C.B.B.n.B.N.B.A.B.B.T.`.%XA.T.P.C.A.A.%X#XM.g.e.5.3.1.>.>.>.5.i.x.$X X).C.P. XT.T.`.T.`.B.P.B.B.B.n.B.B.B.B.N.m.C.C.N.",
"B.C.).`.`.+XT.`.T.T.T.T.~.~.T.B.`.%X@X`.P.C./.l.5.D V d w q = = = 2 = 8 w d C &.f.).).).).&X@XA.C.C.~.~.}.T.T.T.T.T.T.T.`.`.A.C.",
" X X X X}. XK.}.T.}.K.}.}.K.}.T.B.T.N.N.N.k.7.A w # .   X                     * S e.#Xx./.C.C.A.T.T.T.P.P.}.}.P.}.}.`.|. X).P. X",
"`.).T.C.Y.}.K.N.N.N.c.N.B.N.N.B.N.N.N.n.t.#.0 # O . . .                         . k #.e.z.N.m.m.B.B.N.N.N.c.N.N.B.Y.P.P.P.P.`. X",
"A.B.B.m.C.B.B.c.n.n.b.c.n.c.v.c.c.N.n.9.A * .       o       X                       % d <.j.n.n.v.v.c.c.c.c.c.c.N.N.N.Y.B.B.A.A.",
"c.n.n.n.n.c.c.c.n.n.v.n.b.n.m.c.z.b.5.d $ . . .   +                                   . q $.y.n.v.c.c.c.c.c.c.c.c.c.b.c.n.c.c.n.",
"m.N.n.B.m.B.B.B.m.m.C.v.D.m.m.C.N.8.j .   .                                             . * @.t.V.N.K.N.N.B.c.N.N.N.N.B.B.n.m.N.",
"B.B.N.B.B.B.B.n.m.v.C.v.m.m.m./.9.C # . . o o                                               % ! r.N.N.N.c.B.B.N.N.Y.Y.N.B.B.Y.Y.",
" X}. X+X~.+X+X+X%X%X%XF.F.n.A.r.A # O O O o                                                   % ! i.V.L.oXXX X}. X%X+X&X X%X X X",
"N.N.C.B.B.m.c.n.m.A.v.A.b.n.s./ > O O - O .                                                     & ( y.N.N.N.c.n.N.n.m.T.N.N.N.N.",
"N.N.m.A.D.B.m.m.m.m.m.m.m.h.:.0 @ @ > ; + o                                                       = &.z.B.m.B.m.B.c.m.B.B.m.N.N.",
"B.T.D.D.m.m.m.B.m.F.F.F.$Xq.V # - - > - o                                                           d 0.).Y.B.A.B.B.B.B.B.C.`.C.",
"m.m.m.B.C.m.m.m.n.n.n.m.h./ * ; ; > > + o                                                           . S g.n.n.m.B.n.B.B.c.m.m.N.",
"B.B.A.m.m.M.m.m.m.n.m.M.2.f $ ; < 1 ; o                                                               5 ,.V.M.m.B.n.N.B.B.N.B.M.",
"n.n.n.m.m.m.n.m.m.m.m.d.^ 1 ; > t t O   .   o         o                                               . h p.n.n.c.n.c.v.m.m.m.n.",
"m.m.B.m.C.C.m.m.m.m.C.<.f 1 1 t t > o                                                                   & +.x.N.n.B.B.B.m.m.m.m.",
"F.m.B.A.A.T.A.~.A.A.l.! 0 t t t t @           o                                 o                       . g y.V.T.B.^.B.C.C.C.A.",
"C.C.D.B.C.B.B.B.m.M.4.A i t t y 1 o                                                                       % O.).B.B.B.B.C.M.A.A.",
"A.D.D.m.T.T.A.B.@XV.o.p i t t a ; o                                                                         h k.P.T.B.D.B.A.~.@X",
"B.B.D.D.T.T.T.B.A.g.Q s a y l l ;                                                                           6 <.).B.D.^.T.B.A.A.",
"B.N.B.n.c.c.c.n.x.<.Z s v z n l :   X   X             X   X                                                   j z.z.m.n.n.m.B.N.",
"m.n.n.N.c.N.n.n.M.O.f x x x v u :             X                                                               9 q.V.B.m.n.c.B.n.",
").P.P.P.}.P.C.).x.! c x v n v 2                   X                                                           # D #X XT.@XA.T.B.",
"P.|.P. X XT.C./.p.W m v v b n :         X             X                                                       . r #X X+X@XT.~.A.",
"b.n.n.n.m.b.n.M.3.Z x b v v z : o     + +                                                                     . w x.n.n.c.m.m.n.",
"T.T.B.m.m.m.m.V.:.B m b v b a -                   X X                                                           w V.M.B.B.B.A.m.",
"v.m.v.v.v.v.m.M.o.m m b b b t +             X             X                                                     w n.n.c.c.c.v.v.",
"v.v.v.c.v.b.v.M.o.B M K b M t o     +             X                                                             w k.n.c.c.v.c.m.",
"m.B.n.m.m.m.m.M.( M M b b M 2 o   o     +       X         X                                                     q g.V.C.m.n.B.m.",
"B.A.B.N.B.Y.m.z.( M b b M N 2 o               X                                                                 9 g.N.N.C.C.B.B.",
"m.n.n.n.n.N.m.h. .M b b N N 2 o o       X                                                                       8 i.n.m.n.n.m.m.",
"x.n.M.z.z.V.V.s.~ M b H G G 2       +         X     X       X                                                   q t.M.N.N.M.m.m.",
"z.N.z.n.n.N.x.q.W N N H G G 2     X   X     X                                                                   q j.V.N.V.n.z.c.",
"K.}.P.|.|.%X#X8.~ B H H H G 2 o +                           X                                                   w x.).|.P.|.}.}.",
"K.}.%X%X).).$X8. .L G G L L 2                     X     X                                                       q j.V.%X|.L.}.}.",
"N.N.N.N.V.V.#X7.X.P H L I L 2 X         X     X     X X                                                         6 i.M.N.N.N.N.N.",
"N.c.c.N.n.M.M.4.X.I J H U I t       o .       .   .                                                             8 r.M.m.m.n.m.n.",
"N.B.B.B.N.H.M.4.X.I I I U U t                   .   X                                                           6 w.m.n.m.N.C.N.",
"B.K.N.N.N.V.M.4.| P T _ U I t   o   o   . .   .               +                                                 5 9.m.m.m.B.C.N.",
"c.c.N.c.c.N.x.3.E J U _ ' U t   o     o                                                                         5 9.m.n.m.n.n.N.",
"c.c.c.c.c.c.x.1.R I U ' _ I t   .                                                                               * 5.b.b.m.b.v.v.",
"Y.c.v.v.c.c.x.>.R U ' } { I t o             +                                                                   6 5.n.c.c.c.c.B.",
"B.c.v.v.N.c.).>.R ) ] } ] ) t   o   X           .                   .                                           * 5.B.B.v.B.v.B.",
"B.B.Y.Y.Y.Y.x.:.R ) } *.} ) t   o .       X           X   +       .                                             6 q.N.B.T.B.B.B.",
"m.v.m.m.m.m.M.%.R ) ] =.*.' t o   . .                         . .                                               6 q.n.n.n.N.c.c.",
"^.+XD.A.A.$X$X%.R _ ] *.] ] t o   .   .   .   X     . . . .         .   .     X                                 q s.).P.T.T.T.}.",
"B.B.m.C.V.F.#X#.E _ =.} ] ] y + X X .     .     .   .     .     .   .         .                                 q j.$XP.T.}.K.K.",
"N.c.M.n.v.M.#X%.| ..-.=.*.*.l - : & @ . .   X     .     .                 X                                     r z.n.n.c.c.N.c.",
"B.c.B.B.m.M.M.#.~ } =.=.*.*.l - , , , . . . X X X .   .   . . . X       .   .   .                               g x.n.n.n.B.N.N.",
"T.T.C.C.F.F.#X#.[ ] } } *.*.l < 3 4 < = & - % @ X X . X X . . . . . X X X . X X @                             . C #XC.B.Y.T.P.P.",
"C.`.T.+XF.F.$X#.E ] =.=.;.;.b 3 4 4 < = < < , & $ @ @ @ @ @ X X X X @ @   X @ & @                             % o.#XA.B.C.T.T.`.",
"C.C.C.C.m.C.$X%.~ ....] ` ` x 1 = & . . . . . .   . . .   . .   . . X X @ X X X @                             8 >.#XC.A.A.C.C.C."
};
